<mxfile host="app.diagrams.net" modified="2022-05-09T05:43:57.320Z" agent="5.0 (Macintosh; Intel Mac OS X 10_15_7) AppleWebKit/537.36 (KHTML, like Gecko) Chrome/101.0.4951.54 Safari/537.36" etag="Mpegjr-9gUq_huuBKm-t" version="18.0.1" type="github" pages="3">
  <diagram id="kgpKYQtTHZ0yAKxKKP6v" name="Whole_arch">
    <mxGraphModel dx="1892" dy="1164" grid="1" gridSize="10" guides="1" tooltips="1" connect="1" arrows="1" fold="1" page="1" pageScale="1" pageWidth="850" pageHeight="1100" math="0" shadow="0">
      <root>
        <mxCell id="0" />
        <mxCell id="1" parent="0" />
        <mxCell id="Gn0aJZnov6bW7oV4H5cv-1" value="NEW CFDC" style="rounded=1;whiteSpace=wrap;html=1;fillColor=#fff2cc;strokeColor=#d6b656;fontFamily=Verdana;align=center;verticalAlign=top;fontStyle=1;fontColor=#EA6B66;labelBackgroundColor=none;labelBorderColor=none;" parent="1" vertex="1">
          <mxGeometry x="85" y="246" width="966" height="800" as="geometry" />
        </mxCell>
        <mxCell id="Gn0aJZnov6bW7oV4H5cv-32" value="&lt;font style=&quot;font-size: 11px;&quot;&gt;&lt;b&gt;Infra / Security&lt;/b&gt;&lt;/font&gt;" style="rounded=0;whiteSpace=wrap;html=1;labelBackgroundColor=none;labelBorderColor=none;fontFamily=Verdana;fontSize=6;verticalAlign=top;fillColor=#d5e8d4;strokeColor=#82b366;" parent="1" vertex="1">
          <mxGeometry x="178.5" y="297" width="779" height="340" as="geometry" />
        </mxCell>
        <mxCell id="Gn0aJZnov6bW7oV4H5cv-34" value="Internet F5" style="rounded=0;whiteSpace=wrap;html=1;labelBackgroundColor=none;labelBorderColor=none;fontFamily=Verdana;fontSize=11;fontColor=#333333;fillColor=#f5f5f5;strokeColor=#666666;" parent="1" vertex="1">
          <mxGeometry x="338" y="327" width="460" height="30" as="geometry" />
        </mxCell>
        <mxCell id="Gn0aJZnov6bW7oV4H5cv-35" value="PA" style="rounded=0;whiteSpace=wrap;html=1;labelBackgroundColor=none;labelBorderColor=none;fontFamily=Verdana;fontSize=11;fontColor=#333333;fillColor=#f5f5f5;strokeColor=#666666;" parent="1" vertex="1">
          <mxGeometry x="434.5" y="377" width="267" height="30" as="geometry" />
        </mxCell>
        <mxCell id="Gn0aJZnov6bW7oV4H5cv-36" value="Gigamon" style="rounded=0;whiteSpace=wrap;html=1;labelBackgroundColor=none;labelBorderColor=none;fontFamily=Verdana;fontSize=11;fontColor=#333333;fillColor=#f5f5f5;strokeColor=#666666;" parent="1" vertex="1">
          <mxGeometry x="444.5" y="427" width="247" height="30" as="geometry" />
        </mxCell>
        <mxCell id="Gn0aJZnov6bW7oV4H5cv-37" value="SW" style="rounded=0;whiteSpace=wrap;html=1;labelBackgroundColor=none;labelBorderColor=none;fontFamily=Verdana;fontSize=11;fontColor=#333333;fillColor=#f5f5f5;strokeColor=#666666;" parent="1" vertex="1">
          <mxGeometry x="469.5" y="477" width="197" height="30" as="geometry" />
        </mxCell>
        <mxCell id="Gn0aJZnov6bW7oV4H5cv-38" value="Share Service F5" style="rounded=0;whiteSpace=wrap;html=1;labelBackgroundColor=none;labelBorderColor=none;fontFamily=Verdana;fontSize=11;fontColor=#333333;fillColor=#f5f5f5;strokeColor=#666666;" parent="1" vertex="1">
          <mxGeometry x="338" y="527" width="460" height="30" as="geometry" />
        </mxCell>
        <mxCell id="Gn0aJZnov6bW7oV4H5cv-39" value="Shape" style="rounded=0;whiteSpace=wrap;html=1;labelBackgroundColor=none;labelBorderColor=none;fontFamily=Verdana;fontSize=11;fontColor=#333333;fillColor=#f5f5f5;strokeColor=#666666;" parent="1" vertex="1">
          <mxGeometry x="504.5" y="577" width="127" height="30" as="geometry" />
        </mxCell>
        <mxCell id="Gn0aJZnov6bW7oV4H5cv-40" value="WAF" style="rounded=0;whiteSpace=wrap;html=1;labelBackgroundColor=none;labelBorderColor=none;fontFamily=Verdana;fontSize=11;fontColor=#333333;fillColor=#f5f5f5;strokeColor=#666666;" parent="1" vertex="1">
          <mxGeometry x="241" y="407" width="120" height="30" as="geometry" />
        </mxCell>
        <mxCell id="Gn0aJZnov6bW7oV4H5cv-41" value="IPS" style="rounded=0;whiteSpace=wrap;html=1;labelBackgroundColor=none;labelBorderColor=none;fontFamily=Verdana;fontSize=11;fontColor=#333333;fillColor=#f5f5f5;strokeColor=#666666;" parent="1" vertex="1">
          <mxGeometry x="241" y="457" width="120" height="30" as="geometry" />
        </mxCell>
        <mxCell id="TybYMr1QHtzp7e720_v3-8" value="" style="endArrow=classic;html=1;rounded=0;fontFamily=Verdana;fontSize=11;fontColor=#EA6B66;" parent="1" source="Gn0aJZnov6bW7oV4H5cv-34" target="Gn0aJZnov6bW7oV4H5cv-35" edge="1">
          <mxGeometry width="50" height="50" relative="1" as="geometry">
            <mxPoint x="521" y="417" as="sourcePoint" />
            <mxPoint x="571" y="367" as="targetPoint" />
          </mxGeometry>
        </mxCell>
        <mxCell id="TybYMr1QHtzp7e720_v3-9" value="" style="endArrow=classic;html=1;rounded=0;fontFamily=Verdana;fontSize=11;fontColor=#EA6B66;exitX=0.5;exitY=1;exitDx=0;exitDy=0;" parent="1" source="Gn0aJZnov6bW7oV4H5cv-35" target="Gn0aJZnov6bW7oV4H5cv-36" edge="1">
          <mxGeometry width="50" height="50" relative="1" as="geometry">
            <mxPoint x="578" y="367" as="sourcePoint" />
            <mxPoint x="578.0000000000001" y="387" as="targetPoint" />
          </mxGeometry>
        </mxCell>
        <mxCell id="TybYMr1QHtzp7e720_v3-10" value="" style="endArrow=classic;html=1;rounded=0;fontFamily=Verdana;fontSize=11;fontColor=#EA6B66;entryX=0.5;entryY=0;entryDx=0;entryDy=0;exitX=0.5;exitY=1;exitDx=0;exitDy=0;" parent="1" source="Gn0aJZnov6bW7oV4H5cv-36" target="Gn0aJZnov6bW7oV4H5cv-37" edge="1">
          <mxGeometry width="50" height="50" relative="1" as="geometry">
            <mxPoint x="588" y="377" as="sourcePoint" />
            <mxPoint x="588.0000000000001" y="397" as="targetPoint" />
          </mxGeometry>
        </mxCell>
        <mxCell id="TybYMr1QHtzp7e720_v3-11" value="" style="endArrow=classic;html=1;rounded=0;fontFamily=Verdana;fontSize=11;fontColor=#EA6B66;entryX=0.5;entryY=0;entryDx=0;entryDy=0;exitX=0.5;exitY=1;exitDx=0;exitDy=0;" parent="1" source="Gn0aJZnov6bW7oV4H5cv-37" target="Gn0aJZnov6bW7oV4H5cv-38" edge="1">
          <mxGeometry width="50" height="50" relative="1" as="geometry">
            <mxPoint x="578" y="467" as="sourcePoint" />
            <mxPoint x="578" y="487" as="targetPoint" />
          </mxGeometry>
        </mxCell>
        <mxCell id="TybYMr1QHtzp7e720_v3-12" value="" style="endArrow=classic;html=1;rounded=0;fontFamily=Verdana;fontSize=11;fontColor=#EA6B66;exitX=0.5;exitY=1;exitDx=0;exitDy=0;" parent="1" source="Gn0aJZnov6bW7oV4H5cv-38" target="Gn0aJZnov6bW7oV4H5cv-39" edge="1">
          <mxGeometry width="50" height="50" relative="1" as="geometry">
            <mxPoint x="588" y="477" as="sourcePoint" />
            <mxPoint x="588" y="497" as="targetPoint" />
          </mxGeometry>
        </mxCell>
        <mxCell id="TybYMr1QHtzp7e720_v3-13" value="" style="endArrow=classic;startArrow=classic;html=1;rounded=0;fontFamily=Verdana;fontSize=11;fontColor=#EA6B66;entryX=0;entryY=1;entryDx=0;entryDy=0;exitX=1;exitY=0.5;exitDx=0;exitDy=0;" parent="1" source="Gn0aJZnov6bW7oV4H5cv-41" target="Gn0aJZnov6bW7oV4H5cv-36" edge="1">
          <mxGeometry width="50" height="50" relative="1" as="geometry">
            <mxPoint x="431" y="517" as="sourcePoint" />
            <mxPoint x="481" y="467" as="targetPoint" />
          </mxGeometry>
        </mxCell>
        <mxCell id="TybYMr1QHtzp7e720_v3-14" value="" style="endArrow=classic;startArrow=classic;html=1;rounded=0;fontFamily=Verdana;fontSize=11;fontColor=#EA6B66;entryX=0;entryY=0;entryDx=0;entryDy=0;" parent="1" source="Gn0aJZnov6bW7oV4H5cv-40" target="Gn0aJZnov6bW7oV4H5cv-36" edge="1">
          <mxGeometry width="50" height="50" relative="1" as="geometry">
            <mxPoint x="371" y="482" as="sourcePoint" />
            <mxPoint x="454.4999999999999" y="467" as="targetPoint" />
          </mxGeometry>
        </mxCell>
        <mxCell id="TybYMr1QHtzp7e720_v3-15" value="&lt;span style=&quot;font-size: 11px;&quot;&gt;&lt;b&gt;New CFDC Application&lt;/b&gt;&lt;/span&gt;&lt;span style=&quot;color: rgb(234, 107, 102); font-size: 12px; font-weight: 700;&quot;&gt;（*.sbuxcf.net）&lt;/span&gt;" style="rounded=0;whiteSpace=wrap;html=1;labelBackgroundColor=none;labelBorderColor=none;fontFamily=Verdana;fontSize=6;verticalAlign=top;fillColor=#f8cecc;strokeColor=#b85450;" parent="1" vertex="1">
          <mxGeometry x="165" y="916" width="779" height="80" as="geometry" />
        </mxCell>
        <mxCell id="TybYMr1QHtzp7e720_v3-30" value="Overall Arch" style="swimlane;labelBackgroundColor=none;labelBorderColor=none;fontFamily=Verdana;fontSize=11;fillColor=#dae8fc;strokeColor=#6c8ebf;" parent="1" vertex="1">
          <mxGeometry x="51" y="20" width="1599" height="1070" as="geometry" />
        </mxCell>
        <mxCell id="Gn0aJZnov6bW7oV4H5cv-15" value="Ali Cloud" style="rounded=1;whiteSpace=wrap;html=1;fillColor=#fff2cc;strokeColor=#d6b656;fontFamily=Verdana;align=center;verticalAlign=top;fontStyle=1;fontColor=#EA6B66;labelBackgroundColor=none;labelBorderColor=none;" parent="TybYMr1QHtzp7e720_v3-30" vertex="1">
          <mxGeometry x="1107" y="153" width="340" height="545" as="geometry" />
        </mxCell>
        <mxCell id="Gn0aJZnov6bW7oV4H5cv-16" value="&lt;font style=&quot;font-size: 11px;&quot;&gt;&lt;b&gt;CND&lt;/b&gt;&lt;/font&gt;" style="rounded=0;whiteSpace=wrap;html=1;labelBackgroundColor=none;labelBorderColor=none;fontFamily=Verdana;fontSize=6;verticalAlign=top;fillColor=#d5e8d4;strokeColor=#82b366;" parent="TybYMr1QHtzp7e720_v3-30" vertex="1">
          <mxGeometry x="1147" y="178" width="110" height="505" as="geometry" />
        </mxCell>
        <mxCell id="Gn0aJZnov6bW7oV4H5cv-17" value="3pp" style="rounded=0;whiteSpace=wrap;html=1;labelBackgroundColor=none;labelBorderColor=none;fontFamily=Verdana;fontSize=11;fontColor=#333333;fillColor=#f5f5f5;strokeColor=#666666;" parent="TybYMr1QHtzp7e720_v3-30" vertex="1">
          <mxGeometry x="1172" y="208" width="60" height="30" as="geometry" />
        </mxCell>
        <mxCell id="Gn0aJZnov6bW7oV4H5cv-23" value="reservation" style="rounded=0;whiteSpace=wrap;html=1;labelBackgroundColor=none;labelBorderColor=none;fontFamily=Verdana;fontSize=11;fontColor=#333333;fillColor=#f5f5f5;strokeColor=#666666;" parent="TybYMr1QHtzp7e720_v3-30" vertex="1">
          <mxGeometry x="1167" y="287" width="70" height="30" as="geometry" />
        </mxCell>
        <mxCell id="Gn0aJZnov6bW7oV4H5cv-24" value="toggle" style="rounded=0;whiteSpace=wrap;html=1;labelBackgroundColor=none;labelBorderColor=none;fontFamily=Verdana;fontSize=11;fontColor=#333333;fillColor=#f5f5f5;strokeColor=#666666;" parent="TybYMr1QHtzp7e720_v3-30" vertex="1">
          <mxGeometry x="1167" y="408" width="70" height="30" as="geometry" />
        </mxCell>
        <mxCell id="Gn0aJZnov6bW7oV4H5cv-25" value="pcmd" style="rounded=0;whiteSpace=wrap;html=1;labelBackgroundColor=none;labelBorderColor=none;fontFamily=Verdana;fontSize=11;fontColor=#333333;fillColor=#f5f5f5;strokeColor=#666666;" parent="TybYMr1QHtzp7e720_v3-30" vertex="1">
          <mxGeometry x="1167" y="488" width="70" height="30" as="geometry" />
        </mxCell>
        <mxCell id="Gn0aJZnov6bW7oV4H5cv-26" value="active" style="rounded=0;whiteSpace=wrap;html=1;labelBackgroundColor=none;labelBorderColor=none;fontFamily=Verdana;fontSize=11;fontColor=#333333;fillColor=#f5f5f5;strokeColor=#666666;" parent="TybYMr1QHtzp7e720_v3-30" vertex="1">
          <mxGeometry x="1167" y="448" width="70" height="30" as="geometry" />
        </mxCell>
        <mxCell id="Gn0aJZnov6bW7oV4H5cv-27" value="3pph5" style="rounded=0;whiteSpace=wrap;html=1;labelBackgroundColor=none;labelBorderColor=none;fontFamily=Verdana;fontSize=11;fontColor=#333333;fillColor=#f5f5f5;strokeColor=#666666;" parent="TybYMr1QHtzp7e720_v3-30" vertex="1">
          <mxGeometry x="1167" y="248" width="70" height="30" as="geometry" />
        </mxCell>
        <mxCell id="Gn0aJZnov6bW7oV4H5cv-28" value="www" style="rounded=0;whiteSpace=wrap;html=1;labelBackgroundColor=none;labelBorderColor=none;fontFamily=Verdana;fontSize=11;fontColor=#333333;fillColor=#f5f5f5;strokeColor=#666666;" parent="TybYMr1QHtzp7e720_v3-30" vertex="1">
          <mxGeometry x="1167" y="328" width="70" height="30" as="geometry" />
        </mxCell>
        <mxCell id="Gn0aJZnov6bW7oV4H5cv-29" value="moment" style="rounded=0;whiteSpace=wrap;html=1;labelBackgroundColor=none;labelBorderColor=none;fontFamily=Verdana;fontSize=11;fontColor=#333333;fillColor=#f5f5f5;strokeColor=#666666;" parent="TybYMr1QHtzp7e720_v3-30" vertex="1">
          <mxGeometry x="1167" y="528" width="70" height="30" as="geometry" />
        </mxCell>
        <mxCell id="Gn0aJZnov6bW7oV4H5cv-30" value="ml-storage" style="rounded=0;whiteSpace=wrap;html=1;labelBackgroundColor=none;labelBorderColor=none;fontFamily=Verdana;fontSize=11;fontColor=#333333;fillColor=#f5f5f5;strokeColor=#666666;" parent="TybYMr1QHtzp7e720_v3-30" vertex="1">
          <mxGeometry x="1167" y="568" width="70" height="30" as="geometry" />
        </mxCell>
        <mxCell id="Gn0aJZnov6bW7oV4H5cv-31" value="static" style="rounded=0;whiteSpace=wrap;html=1;labelBackgroundColor=none;labelBorderColor=none;fontFamily=Verdana;fontSize=11;fontColor=#333333;fillColor=#f5f5f5;strokeColor=#666666;" parent="TybYMr1QHtzp7e720_v3-30" vertex="1">
          <mxGeometry x="1167" y="368" width="70" height="30" as="geometry" />
        </mxCell>
        <mxCell id="TybYMr1QHtzp7e720_v3-29" value="&lt;span style=&quot;font-size: 11px;&quot;&gt;&lt;b&gt;Redundancy Application&lt;/b&gt;&lt;/span&gt;" style="rounded=0;whiteSpace=wrap;html=1;labelBackgroundColor=none;labelBorderColor=none;fontFamily=Verdana;fontSize=6;verticalAlign=top;fillColor=#f5f5f5;strokeColor=#666666;fontColor=#333333;" parent="TybYMr1QHtzp7e720_v3-30" vertex="1">
          <mxGeometry x="1287" y="238" width="110" height="335" as="geometry" />
        </mxCell>
        <mxCell id="Gn0aJZnov6bW7oV4H5cv-21" value="bff" style="rounded=0;whiteSpace=wrap;html=1;labelBackgroundColor=none;labelBorderColor=none;fontFamily=Verdana;fontSize=11;fontColor=#333333;fillColor=#f5f5f5;strokeColor=#666666;" parent="TybYMr1QHtzp7e720_v3-30" vertex="1">
          <mxGeometry x="1172" y="603" width="60" height="30" as="geometry" />
        </mxCell>
        <mxCell id="Gn0aJZnov6bW7oV4H5cv-22" value="artwork" style="rounded=0;whiteSpace=wrap;html=1;labelBackgroundColor=none;labelBorderColor=none;fontFamily=Verdana;fontSize=11;fontColor=#333333;fillColor=#f5f5f5;strokeColor=#666666;" parent="TybYMr1QHtzp7e720_v3-30" vertex="1">
          <mxGeometry x="1172" y="638" width="60" height="30" as="geometry" />
        </mxCell>
        <mxCell id="Gn0aJZnov6bW7oV4H5cv-8" value="IDC" style="rounded=1;whiteSpace=wrap;html=1;fillColor=#fff2cc;strokeColor=#d6b656;fontFamily=Verdana;align=center;verticalAlign=top;fontStyle=1;fontColor=#EA6B66;labelBackgroundColor=none;labelBorderColor=none;" parent="TybYMr1QHtzp7e720_v3-30" vertex="1">
          <mxGeometry x="1044" y="723.77" width="515" height="316.23" as="geometry" />
        </mxCell>
        <mxCell id="Gn0aJZnov6bW7oV4H5cv-4" value="POS" style="strokeColor=#dddddd;shadow=1;strokeWidth=1;rounded=1;absoluteArcSize=1;arcSize=2;labelPosition=center;verticalLabelPosition=middle;align=center;verticalAlign=bottom;spacingLeft=0;fontColor=#999999;fontSize=12;whiteSpace=wrap;spacingBottom=2;labelBackgroundColor=none;labelBorderColor=none;fontFamily=Verdana;" parent="TybYMr1QHtzp7e720_v3-30" vertex="1">
          <mxGeometry x="1478" y="753.77" width="70" height="90" as="geometry" />
        </mxCell>
        <mxCell id="Gn0aJZnov6bW7oV4H5cv-5" value="" style="dashed=0;connectable=0;html=1;fillColor=#757575;strokeColor=none;shape=mxgraph.gcp2.desktop_and_mobile;part=1;labelBackgroundColor=none;labelBorderColor=none;fontFamily=Verdana;fontColor=#EA6B66;" parent="Gn0aJZnov6bW7oV4H5cv-4" vertex="1">
          <mxGeometry x="0.5" width="50" height="33" relative="1" as="geometry">
            <mxPoint x="-25" y="18.5" as="offset" />
          </mxGeometry>
        </mxCell>
        <mxCell id="Gn0aJZnov6bW7oV4H5cv-33" value="Bridge Kong" style="rounded=0;whiteSpace=wrap;html=1;labelBackgroundColor=none;labelBorderColor=none;fontFamily=Verdana;fontSize=11;fillColor=#f8cecc;strokeColor=#b85450;" parent="TybYMr1QHtzp7e720_v3-30" vertex="1">
          <mxGeometry x="1067" y="813.77" width="146" height="30" as="geometry" />
        </mxCell>
        <mxCell id="TybYMr1QHtzp7e720_v3-2" value="F5" style="rounded=0;whiteSpace=wrap;html=1;labelBackgroundColor=none;labelBorderColor=none;fontFamily=Verdana;fontSize=11;fontColor=#333333;fillColor=#f5f5f5;strokeColor=#666666;" parent="TybYMr1QHtzp7e720_v3-30" vertex="1">
          <mxGeometry x="1067" y="863.77" width="336" height="30" as="geometry" />
        </mxCell>
        <mxCell id="TybYMr1QHtzp7e720_v3-3" value="F5" style="rounded=0;whiteSpace=wrap;html=1;labelBackgroundColor=none;labelBorderColor=none;fontFamily=Verdana;fontSize=11;fontColor=#333333;fillColor=#f5f5f5;strokeColor=#666666;" parent="TybYMr1QHtzp7e720_v3-30" vertex="1">
          <mxGeometry x="1067" y="763.77" width="336" height="30" as="geometry" />
        </mxCell>
        <mxCell id="TybYMr1QHtzp7e720_v3-16" value="&lt;span style=&quot;font-size: 11px;&quot;&gt;&lt;b&gt;IDC Application&lt;/b&gt;&lt;/span&gt;&lt;span style=&quot;color: rgb(234, 107, 102); font-size: 12px; font-weight: 700;&quot;&gt;（*.starbucks.net）&lt;/span&gt;" style="rounded=0;whiteSpace=wrap;html=1;labelBackgroundColor=none;labelBorderColor=none;fontFamily=Verdana;fontSize=6;verticalAlign=top;fillColor=#f8cecc;strokeColor=#b85450;" parent="TybYMr1QHtzp7e720_v3-30" vertex="1">
          <mxGeometry x="1072" y="954" width="327" height="66.23" as="geometry" />
        </mxCell>
        <mxCell id="TybYMr1QHtzp7e720_v3-17" value="" style="endArrow=classic;html=1;rounded=0;fontFamily=Verdana;fontSize=11;fontColor=#EA6B66;exitX=0.25;exitY=0;exitDx=0;exitDy=0;" parent="TybYMr1QHtzp7e720_v3-30" source="TybYMr1QHtzp7e720_v3-2" target="Gn0aJZnov6bW7oV4H5cv-33" edge="1">
          <mxGeometry width="50" height="50" relative="1" as="geometry">
            <mxPoint x="1360" y="453.77" as="sourcePoint" />
            <mxPoint x="1162" y="843.77" as="targetPoint" />
          </mxGeometry>
        </mxCell>
        <mxCell id="TybYMr1QHtzp7e720_v3-18" value="" style="endArrow=classic;html=1;rounded=0;fontFamily=Verdana;fontSize=11;fontColor=#EA6B66;entryX=0.25;entryY=1;entryDx=0;entryDy=0;" parent="TybYMr1QHtzp7e720_v3-30" source="Gn0aJZnov6bW7oV4H5cv-33" target="TybYMr1QHtzp7e720_v3-3" edge="1">
          <mxGeometry width="50" height="50" relative="1" as="geometry">
            <mxPoint x="1172" y="873.77" as="sourcePoint" />
            <mxPoint x="1172" y="853.77" as="targetPoint" />
          </mxGeometry>
        </mxCell>
        <mxCell id="TybYMr1QHtzp7e720_v3-19" value="IDC Kong" style="rounded=0;whiteSpace=wrap;html=1;labelBackgroundColor=none;labelBorderColor=none;fontFamily=Verdana;fontSize=11;fillColor=#f8cecc;strokeColor=#b85450;" parent="TybYMr1QHtzp7e720_v3-30" vertex="1">
          <mxGeometry x="1251.5" y="813.77" width="146" height="30" as="geometry" />
        </mxCell>
        <mxCell id="TybYMr1QHtzp7e720_v3-20" value="" style="endArrow=classic;html=1;rounded=0;fontFamily=Verdana;fontSize=11;fontColor=#EA6B66;entryX=0.5;entryY=0;entryDx=0;entryDy=0;exitX=0.75;exitY=1;exitDx=0;exitDy=0;" parent="TybYMr1QHtzp7e720_v3-30" source="TybYMr1QHtzp7e720_v3-3" target="TybYMr1QHtzp7e720_v3-19" edge="1">
          <mxGeometry width="50" height="50" relative="1" as="geometry">
            <mxPoint x="1154.7142857142858" y="823.77" as="sourcePoint" />
            <mxPoint x="1161" y="803.77" as="targetPoint" />
          </mxGeometry>
        </mxCell>
        <mxCell id="TybYMr1QHtzp7e720_v3-21" value="" style="endArrow=classic;html=1;rounded=0;fontFamily=Verdana;fontSize=11;fontColor=#EA6B66;entryX=0.75;entryY=0;entryDx=0;entryDy=0;exitX=0.5;exitY=1;exitDx=0;exitDy=0;" parent="TybYMr1QHtzp7e720_v3-30" source="TybYMr1QHtzp7e720_v3-19" target="TybYMr1QHtzp7e720_v3-2" edge="1">
          <mxGeometry width="50" height="50" relative="1" as="geometry">
            <mxPoint x="1329" y="803.77" as="sourcePoint" />
            <mxPoint x="1334.5" y="823.77" as="targetPoint" />
          </mxGeometry>
        </mxCell>
        <mxCell id="TybYMr1QHtzp7e720_v3-22" value="" style="shape=flexArrow;endArrow=classic;html=1;rounded=0;fontFamily=Verdana;fontSize=11;fontColor=#EA6B66;entryX=0.434;entryY=0.632;entryDx=0;entryDy=0;entryPerimeter=0;fillColor=#f5f5f5;strokeColor=#666666;" parent="TybYMr1QHtzp7e720_v3-30" edge="1">
          <mxGeometry width="50" height="50" relative="1" as="geometry">
            <mxPoint x="1303" y="901.77" as="sourcePoint" />
            <mxPoint x="1303.06" y="941.9300000000001" as="targetPoint" />
          </mxGeometry>
        </mxCell>
        <mxCell id="TybYMr1QHtzp7e720_v3-23" value="" style="shape=flexArrow;endArrow=classic;html=1;rounded=0;fontFamily=Verdana;fontSize=11;fontColor=#EA6B66;entryX=0.434;entryY=0.632;entryDx=0;entryDy=0;entryPerimeter=0;fillColor=#f5f5f5;strokeColor=#666666;" parent="TybYMr1QHtzp7e720_v3-30" edge="1">
          <mxGeometry width="50" height="50" relative="1" as="geometry">
            <mxPoint x="1381.83" y="900.77" as="sourcePoint" />
            <mxPoint x="1381.8899999999999" y="940.9300000000001" as="targetPoint" />
          </mxGeometry>
        </mxCell>
        <mxCell id="TybYMr1QHtzp7e720_v3-24" value="" style="shape=flexArrow;endArrow=classic;html=1;rounded=0;fontFamily=Verdana;fontSize=11;fontColor=#EA6B66;entryX=0.227;entryY=1.041;entryDx=0;entryDy=0;entryPerimeter=0;fillColor=#f5f5f5;strokeColor=#666666;" parent="TybYMr1QHtzp7e720_v3-30" edge="1">
          <mxGeometry width="50" height="50" relative="1" as="geometry">
            <mxPoint x="1113" y="939.54" as="sourcePoint" />
            <mxPoint x="1113.272" y="900.77" as="targetPoint" />
            <Array as="points">
              <mxPoint x="1113" y="939.54" />
            </Array>
          </mxGeometry>
        </mxCell>
        <mxCell id="TybYMr1QHtzp7e720_v3-25" value="" style="shape=flexArrow;endArrow=classic;html=1;rounded=0;fontFamily=Verdana;fontSize=11;fontColor=#EA6B66;entryX=0.227;entryY=1.041;entryDx=0;entryDy=0;entryPerimeter=0;fillColor=#f5f5f5;strokeColor=#666666;" parent="TybYMr1QHtzp7e720_v3-30" edge="1">
          <mxGeometry width="50" height="50" relative="1" as="geometry">
            <mxPoint x="1183" y="939.54" as="sourcePoint" />
            <mxPoint x="1183.272" y="900.77" as="targetPoint" />
            <Array as="points">
              <mxPoint x="1183" y="939.54" />
            </Array>
          </mxGeometry>
        </mxCell>
        <mxCell id="TybYMr1QHtzp7e720_v3-26" value="" style="shape=flexArrow;endArrow=classic;html=1;rounded=0;fontFamily=Verdana;fontSize=11;fontColor=#EA6B66;" parent="TybYMr1QHtzp7e720_v3-30" edge="1">
          <mxGeometry width="50" height="50" relative="1" as="geometry">
            <mxPoint x="1472" y="778.2099999999999" as="sourcePoint" />
            <mxPoint x="1412" y="778.2099999999999" as="targetPoint" />
          </mxGeometry>
        </mxCell>
        <mxCell id="TybYMr1QHtzp7e720_v3-28" value="" style="shape=flexArrow;endArrow=classic;html=1;rounded=0;fontFamily=Verdana;fontSize=11;fontColor=#EA6B66;fillColor=#f5f5f5;strokeColor=#666666;" parent="TybYMr1QHtzp7e720_v3-30" edge="1">
          <mxGeometry width="50" height="50" relative="1" as="geometry">
            <mxPoint x="1038" y="763" as="sourcePoint" />
            <mxPoint x="1009" y="763" as="targetPoint" />
            <Array as="points" />
          </mxGeometry>
        </mxCell>
        <mxCell id="TybYMr1QHtzp7e720_v3-34" value="Share Service F5" style="rounded=0;whiteSpace=wrap;html=1;labelBackgroundColor=none;labelBorderColor=none;fontFamily=Verdana;fontSize=11;fontColor=#333333;fillColor=#f5f5f5;strokeColor=#666666;" parent="TybYMr1QHtzp7e720_v3-30" vertex="1">
          <mxGeometry x="264" y="715" width="460" height="30" as="geometry" />
        </mxCell>
        <mxCell id="TybYMr1QHtzp7e720_v3-35" value="Product F5" style="rounded=0;whiteSpace=wrap;html=1;labelBackgroundColor=none;labelBorderColor=none;fontFamily=Verdana;fontSize=11;fontColor=#333333;fillColor=#f5f5f5;strokeColor=#666666;" parent="TybYMr1QHtzp7e720_v3-30" vertex="1">
          <mxGeometry x="264" y="763" width="460" height="30" as="geometry" />
        </mxCell>
        <mxCell id="TybYMr1QHtzp7e720_v3-38" value="" style="endArrow=classic;html=1;rounded=0;fontFamily=Verdana;fontSize=11;fontColor=#EA6B66;" parent="TybYMr1QHtzp7e720_v3-30" source="TybYMr1QHtzp7e720_v3-34" target="TybYMr1QHtzp7e720_v3-35" edge="1">
          <mxGeometry width="50" height="50" relative="1" as="geometry">
            <mxPoint x="504" y="703" as="sourcePoint" />
            <mxPoint x="504" y="725" as="targetPoint" />
          </mxGeometry>
        </mxCell>
        <mxCell id="Gn0aJZnov6bW7oV4H5cv-18" value="" style="rounded=1;whiteSpace=wrap;html=1;labelBackgroundColor=none;labelBorderColor=none;fontFamily=Verdana;fontSize=11;fillColor=#ffe6cc;strokeColor=#d79b00;" parent="TybYMr1QHtzp7e720_v3-30" vertex="1">
          <mxGeometry x="166.5" y="44" width="680" height="130" as="geometry" />
        </mxCell>
        <mxCell id="Gn0aJZnov6bW7oV4H5cv-2" value="APP" style="strokeColor=#dddddd;shadow=1;strokeWidth=1;rounded=1;absoluteArcSize=1;arcSize=2;labelPosition=center;verticalLabelPosition=middle;align=center;verticalAlign=bottom;spacingLeft=0;fontColor=#999999;fontSize=12;whiteSpace=wrap;spacingBottom=2;labelBackgroundColor=none;labelBorderColor=none;fontFamily=Verdana;" parent="TybYMr1QHtzp7e720_v3-30" vertex="1">
          <mxGeometry x="196.5" y="64" width="70" height="85" as="geometry" />
        </mxCell>
        <mxCell id="Gn0aJZnov6bW7oV4H5cv-3" value="" style="dashed=0;connectable=0;html=1;fillColor=#757575;strokeColor=none;shape=mxgraph.gcp2.beacon;part=1;labelBackgroundColor=none;labelBorderColor=none;fontFamily=Verdana;fontColor=#EA6B66;" parent="Gn0aJZnov6bW7oV4H5cv-2" vertex="1">
          <mxGeometry x="0.5" width="36.5" height="50" relative="1" as="geometry">
            <mxPoint x="-18.25" y="10" as="offset" />
          </mxGeometry>
        </mxCell>
        <mxCell id="TybYMr1QHtzp7e720_v3-4" value="" style="shape=flexArrow;endArrow=classic;html=1;rounded=0;fontFamily=Verdana;fontSize=11;fontColor=#EA6B66;fillColor=#f5f5f5;strokeColor=#666666;" parent="Gn0aJZnov6bW7oV4H5cv-2" edge="1">
          <mxGeometry width="50" height="50" relative="1" as="geometry">
            <mxPoint x="70" y="121" as="sourcePoint" />
            <mxPoint x="70" y="159" as="targetPoint" />
          </mxGeometry>
        </mxCell>
        <mxCell id="Gn0aJZnov6bW7oV4H5cv-6" value="Mini-Program" style="strokeColor=#dddddd;shadow=1;strokeWidth=1;rounded=1;absoluteArcSize=1;arcSize=2;labelPosition=center;verticalLabelPosition=middle;align=center;verticalAlign=bottom;spacingLeft=0;fontColor=#999999;fontSize=8;whiteSpace=wrap;spacingBottom=2;labelBackgroundColor=none;labelBorderColor=none;fontFamily=Verdana;" parent="TybYMr1QHtzp7e720_v3-30" vertex="1">
          <mxGeometry x="316.5" y="64" width="70" height="85" as="geometry" />
        </mxCell>
        <mxCell id="Gn0aJZnov6bW7oV4H5cv-7" value="" style="dashed=0;connectable=0;html=1;fillColor=#757575;strokeColor=none;shape=mxgraph.gcp2.beacon;part=1;labelBackgroundColor=none;labelBorderColor=none;fontFamily=Verdana;fontColor=#EA6B66;" parent="Gn0aJZnov6bW7oV4H5cv-6" vertex="1">
          <mxGeometry x="0.5" width="36.5" height="50" relative="1" as="geometry">
            <mxPoint x="-18.25" y="10" as="offset" />
          </mxGeometry>
        </mxCell>
        <mxCell id="Gn0aJZnov6bW7oV4H5cv-9" value="Ali" style="strokeColor=#dddddd;shadow=1;strokeWidth=1;rounded=1;absoluteArcSize=1;arcSize=2;labelPosition=center;verticalLabelPosition=middle;align=center;verticalAlign=bottom;spacingLeft=0;fontColor=#999999;fontSize=8;whiteSpace=wrap;spacingBottom=2;labelBackgroundColor=none;labelBorderColor=none;fontFamily=Verdana;" parent="TybYMr1QHtzp7e720_v3-30" vertex="1">
          <mxGeometry x="436.5" y="64" width="70" height="85" as="geometry" />
        </mxCell>
        <mxCell id="Gn0aJZnov6bW7oV4H5cv-10" value="" style="dashed=0;connectable=0;html=1;fillColor=#757575;strokeColor=none;shape=mxgraph.gcp2.beacon;part=1;labelBackgroundColor=none;labelBorderColor=none;fontFamily=Verdana;fontColor=#EA6B66;" parent="Gn0aJZnov6bW7oV4H5cv-9" vertex="1">
          <mxGeometry x="0.5" width="36.5" height="50" relative="1" as="geometry">
            <mxPoint x="-18.25" y="10" as="offset" />
          </mxGeometry>
        </mxCell>
        <mxCell id="Gn0aJZnov6bW7oV4H5cv-11" value="TMall" style="strokeColor=#dddddd;shadow=1;strokeWidth=1;rounded=1;absoluteArcSize=1;arcSize=2;labelPosition=center;verticalLabelPosition=middle;align=center;verticalAlign=bottom;spacingLeft=0;fontColor=#999999;fontSize=8;whiteSpace=wrap;spacingBottom=2;labelBackgroundColor=none;labelBorderColor=none;fontFamily=Verdana;" parent="TybYMr1QHtzp7e720_v3-30" vertex="1">
          <mxGeometry x="541.5" y="64" width="70" height="85" as="geometry" />
        </mxCell>
        <mxCell id="Gn0aJZnov6bW7oV4H5cv-12" value="" style="dashed=0;connectable=0;html=1;fillColor=#757575;strokeColor=none;shape=mxgraph.gcp2.beacon;part=1;labelBackgroundColor=none;labelBorderColor=none;fontFamily=Verdana;fontColor=#EA6B66;" parent="Gn0aJZnov6bW7oV4H5cv-11" vertex="1">
          <mxGeometry x="0.5" width="36.5" height="50" relative="1" as="geometry">
            <mxPoint x="-18.25" y="10" as="offset" />
          </mxGeometry>
        </mxCell>
        <mxCell id="Gn0aJZnov6bW7oV4H5cv-13" value="WSG" style="strokeColor=#dddddd;shadow=1;strokeWidth=1;rounded=1;absoluteArcSize=1;arcSize=2;labelPosition=center;verticalLabelPosition=middle;align=center;verticalAlign=bottom;spacingLeft=0;fontColor=#999999;fontSize=8;whiteSpace=wrap;spacingBottom=2;labelBackgroundColor=none;labelBorderColor=none;fontFamily=Verdana;" parent="TybYMr1QHtzp7e720_v3-30" vertex="1">
          <mxGeometry x="646.5" y="64" width="70" height="85" as="geometry" />
        </mxCell>
        <mxCell id="Gn0aJZnov6bW7oV4H5cv-14" value="" style="dashed=0;connectable=0;html=1;fillColor=#757575;strokeColor=none;shape=mxgraph.gcp2.beacon;part=1;labelBackgroundColor=none;labelBorderColor=none;fontFamily=Verdana;fontColor=#EA6B66;" parent="Gn0aJZnov6bW7oV4H5cv-13" vertex="1">
          <mxGeometry x="0.5" width="36.5" height="50" relative="1" as="geometry">
            <mxPoint x="-18.25" y="10" as="offset" />
          </mxGeometry>
        </mxCell>
        <mxCell id="Gn0aJZnov6bW7oV4H5cv-19" value="Others" style="strokeColor=#dddddd;shadow=1;strokeWidth=1;rounded=1;absoluteArcSize=1;arcSize=2;labelPosition=center;verticalLabelPosition=middle;align=center;verticalAlign=bottom;spacingLeft=0;fontColor=#999999;fontSize=8;whiteSpace=wrap;spacingBottom=2;labelBackgroundColor=none;labelBorderColor=none;fontFamily=Verdana;" parent="TybYMr1QHtzp7e720_v3-30" vertex="1">
          <mxGeometry x="746.5" y="66.5" width="70" height="85" as="geometry" />
        </mxCell>
        <mxCell id="Gn0aJZnov6bW7oV4H5cv-20" value="" style="dashed=0;connectable=0;html=1;fillColor=#757575;strokeColor=none;shape=mxgraph.gcp2.beacon;part=1;labelBackgroundColor=none;labelBorderColor=none;fontFamily=Verdana;fontColor=#EA6B66;" parent="Gn0aJZnov6bW7oV4H5cv-19" vertex="1">
          <mxGeometry x="0.5" width="36.5" height="50" relative="1" as="geometry">
            <mxPoint x="-18.25" y="10" as="offset" />
          </mxGeometry>
        </mxCell>
        <mxCell id="TybYMr1QHtzp7e720_v3-6" value="" style="shape=flexArrow;endArrow=classic;html=1;rounded=0;fontFamily=Verdana;fontSize=11;fontColor=#EA6B66;fillColor=#f5f5f5;strokeColor=#666666;" parent="TybYMr1QHtzp7e720_v3-30" edge="1">
          <mxGeometry width="50" height="50" relative="1" as="geometry">
            <mxPoint x="492.5" y="185" as="sourcePoint" />
            <mxPoint x="492.5" y="223" as="targetPoint" />
          </mxGeometry>
        </mxCell>
        <mxCell id="TybYMr1QHtzp7e720_v3-7" value="" style="shape=flexArrow;endArrow=classic;html=1;rounded=0;fontFamily=Verdana;fontSize=11;fontColor=#EA6B66;fillColor=#f5f5f5;strokeColor=#666666;" parent="TybYMr1QHtzp7e720_v3-30" edge="1">
          <mxGeometry width="50" height="50" relative="1" as="geometry">
            <mxPoint x="722.5" y="185" as="sourcePoint" />
            <mxPoint x="722.5" y="223" as="targetPoint" />
          </mxGeometry>
        </mxCell>
        <mxCell id="TybYMr1QHtzp7e720_v3-50" value="10K请求" style="shape=or;whiteSpace=wrap;html=1;direction=north;fillColor=#1ba1e2;strokeColor=#006EAF;labelBackgroundColor=none;labelBorderColor=none;fontFamily=Verdana;fontSize=11;fontColor=#ffffff;" parent="TybYMr1QHtzp7e720_v3-30" vertex="1">
          <mxGeometry x="1116" y="166" width="72" height="40" as="geometry" />
        </mxCell>
        <mxCell id="TybYMr1QHtzp7e720_v3-53" value="&lt;span style=&quot;font-size: 10px;&quot;&gt;1G流量&lt;/span&gt;" style="shape=or;whiteSpace=wrap;html=1;direction=north;fillColor=#1ba1e2;strokeColor=#006EAF;labelBackgroundColor=none;labelBorderColor=none;fontFamily=Verdana;fontSize=11;fontColor=#ffffff;" parent="TybYMr1QHtzp7e720_v3-30" vertex="1">
          <mxGeometry x="1057" y="633" width="71" height="39" as="geometry" />
        </mxCell>
        <mxCell id="TybYMr1QHtzp7e720_v3-54" value="&lt;span style=&quot;font-size: 10px;&quot;&gt;10G流量&lt;/span&gt;" style="shape=or;whiteSpace=wrap;html=1;direction=north;fillColor=#1ba1e2;strokeColor=#006EAF;labelBackgroundColor=none;labelBorderColor=none;fontFamily=Verdana;fontSize=11;fontColor=#ffffff;" parent="TybYMr1QHtzp7e720_v3-30" vertex="1">
          <mxGeometry x="1028" y="700" width="71" height="39" as="geometry" />
        </mxCell>
        <mxCell id="TybYMr1QHtzp7e720_v3-59" value="&lt;font style=&quot;font-size: 10px; line-height: 1;&quot;&gt;114K新建连接&lt;br style=&quot;font-size: 10px;&quot;&gt;200W并发连接&lt;br&gt;&lt;/font&gt;" style="shape=or;whiteSpace=wrap;html=1;direction=north;fillColor=#1ba1e2;strokeColor=#006EAF;labelBackgroundColor=none;labelBorderColor=none;fontFamily=Verdana;fontSize=11;fontColor=#ffffff;" parent="TybYMr1QHtzp7e720_v3-30" vertex="1">
          <mxGeometry x="144" y="455" width="90" height="41" as="geometry" />
        </mxCell>
        <mxCell id="TybYMr1QHtzp7e720_v3-61" value="自动bypass" style="ellipse;whiteSpace=wrap;html=1;labelBackgroundColor=none;labelBorderColor=none;fontFamily=Verdana;fontSize=10;fillColor=#fad7ac;strokeColor=#b46504;" parent="TybYMr1QHtzp7e720_v3-30" vertex="1">
          <mxGeometry x="144" y="506" width="80" height="30" as="geometry" />
        </mxCell>
        <mxCell id="TybYMr1QHtzp7e720_v3-60" value="&lt;span style=&quot;font-size: 10px;&quot;&gt;72K TPS&lt;br&gt;10G流量&lt;br&gt;&lt;/span&gt;" style="shape=or;whiteSpace=wrap;html=1;direction=north;fillColor=#1ba1e2;strokeColor=#006EAF;labelBackgroundColor=none;labelBorderColor=none;fontFamily=Verdana;fontSize=11;fontColor=#ffffff;" parent="TybYMr1QHtzp7e720_v3-30" vertex="1">
          <mxGeometry x="149.75" y="363" width="68.5" height="35" as="geometry" />
        </mxCell>
        <mxCell id="TybYMr1QHtzp7e720_v3-65" value="自动bypass" style="ellipse;whiteSpace=wrap;html=1;labelBackgroundColor=none;labelBorderColor=none;fontFamily=Verdana;fontSize=10;fillColor=#fad7ac;strokeColor=#b46504;" parent="TybYMr1QHtzp7e720_v3-30" vertex="1">
          <mxGeometry x="694" y="416" width="80" height="30" as="geometry" />
        </mxCell>
        <mxCell id="TybYMr1QHtzp7e720_v3-71" value="" style="shape=flexArrow;endArrow=classic;html=1;rounded=0;fontFamily=Verdana;fontSize=11;fontColor=#EA6B66;fillColor=#f5f5f5;strokeColor=#666666;entryX=0.053;entryY=0.015;entryDx=0;entryDy=0;entryPerimeter=0;exitX=1;exitY=0.433;exitDx=0;exitDy=0;exitPerimeter=0;sketch=0;dashed=1;" parent="TybYMr1QHtzp7e720_v3-30" source="Gn0aJZnov6bW7oV4H5cv-18" target="Gn0aJZnov6bW7oV4H5cv-15" edge="1">
          <mxGeometry width="50" height="50" relative="1" as="geometry">
            <mxPoint x="807.5" y="189" as="sourcePoint" />
            <mxPoint x="807.5" y="227" as="targetPoint" />
          </mxGeometry>
        </mxCell>
        <mxCell id="S7J5r0WI9U7cSyK27urQ-1" value="" style="shape=flexArrow;endArrow=classic;html=1;rounded=0;fontFamily=Verdana;fontSize=11;fontColor=#EA6B66;fillColor=#f5f5f5;strokeColor=#666666;" edge="1" parent="TybYMr1QHtzp7e720_v3-30">
          <mxGeometry width="50" height="50" relative="1" as="geometry">
            <mxPoint x="1038" y="798.68" as="sourcePoint" />
            <mxPoint x="1009" y="798.68" as="targetPoint" />
            <Array as="points" />
          </mxGeometry>
        </mxCell>
        <mxCell id="TybYMr1QHtzp7e720_v3-68" value="&lt;b&gt;Legend&lt;/b&gt;" style="strokeWidth=2;html=1;shape=mxgraph.flowchart.display;whiteSpace=wrap;labelBackgroundColor=none;labelBorderColor=none;fontFamily=Verdana;fontSize=10;verticalAlign=top;fillColor=#cdeb8b;strokeColor=#36393d;" parent="TybYMr1QHtzp7e720_v3-30" vertex="1">
          <mxGeometry x="1287" y="31.5" width="283" height="120" as="geometry" />
        </mxCell>
        <mxCell id="TybYMr1QHtzp7e720_v3-69" value="&lt;span style=&quot;font-size: 10px;&quot;&gt;Max Performance&lt;/span&gt;" style="shape=or;whiteSpace=wrap;html=1;direction=north;fillColor=#1ba1e2;strokeColor=#006EAF;labelBackgroundColor=none;labelBorderColor=none;fontFamily=Verdana;fontSize=11;fontColor=#ffffff;" parent="TybYMr1QHtzp7e720_v3-30" vertex="1">
          <mxGeometry x="1459" y="77.5" width="81" height="39" as="geometry" />
        </mxCell>
        <mxCell id="TybYMr1QHtzp7e720_v3-70" value="bypass action" style="ellipse;whiteSpace=wrap;html=1;labelBackgroundColor=none;labelBorderColor=none;fontFamily=Verdana;fontSize=10;fillColor=#fad7ac;strokeColor=#b46504;" parent="TybYMr1QHtzp7e720_v3-30" vertex="1">
          <mxGeometry x="1337" y="77.5" width="90.5" height="40" as="geometry" />
        </mxCell>
        <mxCell id="TybYMr1QHtzp7e720_v3-32" value="" style="shape=flexArrow;endArrow=none;startArrow=classic;html=1;rounded=0;fontFamily=Verdana;fontSize=11;fontColor=#EA6B66;entryX=0;entryY=0.5;entryDx=0;entryDy=0;fillColor=#f5f5f5;strokeColor=#666666;gradientColor=#ffffff;endFill=0;" parent="1" edge="1">
          <mxGeometry width="100" height="100" relative="1" as="geometry">
            <mxPoint x="1059" y="446" as="sourcePoint" />
            <mxPoint x="1150" y="445.4999999999998" as="targetPoint" />
          </mxGeometry>
        </mxCell>
        <mxCell id="TybYMr1QHtzp7e720_v3-33" value="External Kong" style="rounded=0;whiteSpace=wrap;html=1;labelBackgroundColor=none;labelBorderColor=none;fontFamily=Verdana;fontSize=11;fillColor=#f8cecc;strokeColor=#b85450;" parent="1" vertex="1">
          <mxGeometry x="315" y="683" width="460" height="30" as="geometry" />
        </mxCell>
        <mxCell id="TybYMr1QHtzp7e720_v3-36" value="Internal Kong" style="rounded=0;whiteSpace=wrap;html=1;labelBackgroundColor=none;labelBorderColor=none;fontFamily=Verdana;fontSize=11;fillColor=#f8cecc;strokeColor=#b85450;" parent="1" vertex="1">
          <mxGeometry x="315" y="833" width="460" height="30" as="geometry" />
        </mxCell>
        <mxCell id="TybYMr1QHtzp7e720_v3-37" value="" style="endArrow=classic;html=1;rounded=0;fontFamily=Verdana;fontSize=11;fontColor=#EA6B66;exitX=0.5;exitY=1;exitDx=0;exitDy=0;" parent="1" source="TybYMr1QHtzp7e720_v3-33" target="TybYMr1QHtzp7e720_v3-34" edge="1">
          <mxGeometry width="50" height="50" relative="1" as="geometry">
            <mxPoint x="578" y="574" as="sourcePoint" />
            <mxPoint x="578" y="594" as="targetPoint" />
          </mxGeometry>
        </mxCell>
        <mxCell id="TybYMr1QHtzp7e720_v3-40" value="" style="endArrow=classic;html=1;rounded=0;fontFamily=Verdana;fontSize=11;fontColor=#EA6B66;exitX=0.5;exitY=1;exitDx=0;exitDy=0;entryX=0.5;entryY=0;entryDx=0;entryDy=0;" parent="1" source="TybYMr1QHtzp7e720_v3-35" target="TybYMr1QHtzp7e720_v3-36" edge="1">
          <mxGeometry width="50" height="50" relative="1" as="geometry">
            <mxPoint x="555" y="723" as="sourcePoint" />
            <mxPoint x="555" y="745" as="targetPoint" />
          </mxGeometry>
        </mxCell>
        <mxCell id="TybYMr1QHtzp7e720_v3-41" value="" style="shape=flexArrow;endArrow=classic;html=1;rounded=0;fontFamily=Verdana;fontSize=11;fontColor=#EA6B66;fillColor=#f5f5f5;strokeColor=#666666;" parent="1" edge="1">
          <mxGeometry width="50" height="50" relative="1" as="geometry">
            <mxPoint x="389" y="643" as="sourcePoint" />
            <mxPoint x="389" y="681" as="targetPoint" />
          </mxGeometry>
        </mxCell>
        <mxCell id="TybYMr1QHtzp7e720_v3-42" value="" style="shape=flexArrow;endArrow=classic;html=1;rounded=0;fontFamily=Verdana;fontSize=11;fontColor=#EA6B66;fillColor=#f5f5f5;strokeColor=#666666;" parent="1" edge="1">
          <mxGeometry width="50" height="50" relative="1" as="geometry">
            <mxPoint x="544" y="643" as="sourcePoint" />
            <mxPoint x="544" y="681" as="targetPoint" />
          </mxGeometry>
        </mxCell>
        <mxCell id="TybYMr1QHtzp7e720_v3-43" value="" style="shape=flexArrow;endArrow=classic;html=1;rounded=0;fontFamily=Verdana;fontSize=11;fontColor=#EA6B66;fillColor=#f5f5f5;strokeColor=#666666;" parent="1" edge="1">
          <mxGeometry width="50" height="50" relative="1" as="geometry">
            <mxPoint x="715" y="643" as="sourcePoint" />
            <mxPoint x="715" y="681" as="targetPoint" />
          </mxGeometry>
        </mxCell>
        <mxCell id="TybYMr1QHtzp7e720_v3-47" value="" style="shape=flexArrow;endArrow=classic;html=1;rounded=0;fontFamily=Verdana;fontSize=11;fontColor=#EA6B66;fillColor=#f5f5f5;strokeColor=#666666;" parent="1" edge="1">
          <mxGeometry width="50" height="50" relative="1" as="geometry">
            <mxPoint x="391.19" y="876" as="sourcePoint" />
            <mxPoint x="391.19" y="914" as="targetPoint" />
          </mxGeometry>
        </mxCell>
        <mxCell id="TybYMr1QHtzp7e720_v3-48" value="" style="shape=flexArrow;endArrow=classic;html=1;rounded=0;fontFamily=Verdana;fontSize=11;fontColor=#EA6B66;fillColor=#f5f5f5;strokeColor=#666666;" parent="1" edge="1">
          <mxGeometry width="50" height="50" relative="1" as="geometry">
            <mxPoint x="546.19" y="876" as="sourcePoint" />
            <mxPoint x="546.19" y="914" as="targetPoint" />
          </mxGeometry>
        </mxCell>
        <mxCell id="TybYMr1QHtzp7e720_v3-49" value="" style="shape=flexArrow;endArrow=classic;html=1;rounded=0;fontFamily=Verdana;fontSize=11;fontColor=#EA6B66;fillColor=#f5f5f5;strokeColor=#666666;" parent="1" edge="1">
          <mxGeometry width="50" height="50" relative="1" as="geometry">
            <mxPoint x="717.19" y="876" as="sourcePoint" />
            <mxPoint x="717.19" y="914" as="targetPoint" />
          </mxGeometry>
        </mxCell>
        <mxCell id="TybYMr1QHtzp7e720_v3-51" value="&lt;font style=&quot;font-size: 10px; line-height: 1;&quot;&gt;750K新建连接&lt;br style=&quot;font-size: 10px;&quot;&gt;80M会话数/s&lt;br style=&quot;font-size: 10px;&quot;&gt;限流8.5K&lt;/font&gt;" style="shape=or;whiteSpace=wrap;html=1;direction=north;fillColor=#1ba1e2;strokeColor=#006EAF;labelBackgroundColor=none;labelBorderColor=none;fontFamily=Verdana;fontSize=11;fontColor=#ffffff;" parent="1" vertex="1">
          <mxGeometry x="765" y="286" width="100" height="60" as="geometry" />
        </mxCell>
        <mxCell id="TybYMr1QHtzp7e720_v3-52" value="&lt;span style=&quot;font-size: 10px;&quot;&gt;500K+会话数/s&lt;/span&gt;" style="shape=or;whiteSpace=wrap;html=1;direction=north;fillColor=#1ba1e2;strokeColor=#006EAF;labelBackgroundColor=none;labelBorderColor=none;fontFamily=Verdana;fontSize=11;fontColor=#ffffff;" parent="1" vertex="1">
          <mxGeometry x="675" y="382" width="100" height="39" as="geometry" />
        </mxCell>
        <mxCell id="TybYMr1QHtzp7e720_v3-55" value="&lt;span style=&quot;font-size: 10px;&quot;&gt;45K TPS&lt;/span&gt;" style="shape=or;whiteSpace=wrap;html=1;direction=north;fillColor=#1ba1e2;strokeColor=#006EAF;labelBackgroundColor=none;labelBorderColor=none;fontFamily=Verdana;fontSize=11;fontColor=#ffffff;" parent="1" vertex="1">
          <mxGeometry x="666.5" y="436" width="68.5" height="30" as="geometry" />
        </mxCell>
        <mxCell id="TybYMr1QHtzp7e720_v3-56" value="&lt;font style=&quot;font-size: 10px; line-height: 1;&quot;&gt;800K新建连接&lt;br style=&quot;font-size: 10px;&quot;&gt;40M会话数/s&lt;br&gt;&lt;/font&gt;" style="shape=or;whiteSpace=wrap;html=1;direction=north;fillColor=#1ba1e2;strokeColor=#006EAF;labelBackgroundColor=none;labelBorderColor=none;fontFamily=Verdana;fontSize=11;fontColor=#ffffff;" parent="1" vertex="1">
          <mxGeometry x="765" y="506" width="100" height="41" as="geometry" />
        </mxCell>
        <mxCell id="TybYMr1QHtzp7e720_v3-57" value="&lt;font style=&quot;font-size: 10px; line-height: 1;&quot;&gt;1230K新建连接&lt;br style=&quot;font-size: 10px;&quot;&gt;20M会话数/s&lt;br&gt;&lt;/font&gt;" style="shape=or;whiteSpace=wrap;html=1;direction=north;fillColor=#1ba1e2;strokeColor=#006EAF;labelBackgroundColor=none;labelBorderColor=none;fontFamily=Verdana;fontSize=11;fontColor=#ffffff;" parent="1" vertex="1">
          <mxGeometry x="755" y="766" width="90" height="41" as="geometry" />
        </mxCell>
        <mxCell id="TybYMr1QHtzp7e720_v3-58" value="&lt;span style=&quot;font-size: 10px;&quot;&gt;12K TPS&lt;/span&gt;" style="shape=or;whiteSpace=wrap;html=1;direction=north;fillColor=#1ba1e2;strokeColor=#006EAF;labelBackgroundColor=none;labelBorderColor=none;fontFamily=Verdana;fontSize=11;fontColor=#ffffff;" parent="1" vertex="1">
          <mxGeometry x="615" y="586" width="68.5" height="30" as="geometry" />
        </mxCell>
        <mxCell id="TybYMr1QHtzp7e720_v3-62" value="自动bypass" style="ellipse;whiteSpace=wrap;html=1;labelBackgroundColor=none;labelBorderColor=none;fontFamily=Verdana;fontSize=10;fillColor=#fad7ac;strokeColor=#b46504;" parent="1" vertex="1">
          <mxGeometry x="190.5" y="425" width="80" height="30" as="geometry" />
        </mxCell>
        <mxCell id="TybYMr1QHtzp7e720_v3-63" value="主备切换" style="ellipse;whiteSpace=wrap;html=1;labelBackgroundColor=none;labelBorderColor=none;fontFamily=Verdana;fontSize=10;fillColor=#fad7ac;strokeColor=#b46504;" parent="1" vertex="1">
          <mxGeometry x="775" y="382" width="80" height="30" as="geometry" />
        </mxCell>
        <mxCell id="TybYMr1QHtzp7e720_v3-66" value="主备切换" style="ellipse;whiteSpace=wrap;html=1;labelBackgroundColor=none;labelBorderColor=none;fontFamily=Verdana;fontSize=10;fillColor=#fad7ac;strokeColor=#b46504;" parent="1" vertex="1">
          <mxGeometry x="675" y="476" width="80" height="30" as="geometry" />
        </mxCell>
        <mxCell id="TybYMr1QHtzp7e720_v3-67" value="手动bypass" style="ellipse;whiteSpace=wrap;html=1;labelBackgroundColor=none;labelBorderColor=none;fontFamily=Verdana;fontSize=10;fillColor=#fad7ac;strokeColor=#b46504;" parent="1" vertex="1">
          <mxGeometry x="695" y="577" width="80" height="30" as="geometry" />
        </mxCell>
      </root>
    </mxGraphModel>
  </diagram>
  <diagram id="mA9ouF3RaEfctAoxbU-U" name="Application Chain Asset">
    <mxGraphModel dx="1720" dy="1058" grid="1" gridSize="10" guides="1" tooltips="1" connect="1" arrows="1" fold="1" page="1" pageScale="1" pageWidth="827" pageHeight="1169" math="0" shadow="0">
      <root>
        <mxCell id="0" />
        <mxCell id="1" parent="0" />
        <mxCell id="v2BWGfwRVVUPkCRsSJ6M-66" value="Application Chain - Asset(Coupon / Srkit)" style="swimlane;labelBackgroundColor=none;labelBorderColor=none;fontFamily=Verdana;fontSize=10;fillColor=#cce5ff;strokeColor=#36393d;" parent="1" vertex="1">
          <mxGeometry x="43" y="34" width="2020" height="1110" as="geometry" />
        </mxCell>
        <mxCell id="QzD59LcxyiCYfnGdim3O-61" value="&lt;blockquote style=&quot;margin: 0 0 0 40px; border: none; padding: 0px;&quot;&gt;Ali&lt;/blockquote&gt;" style="rounded=1;whiteSpace=wrap;html=1;labelBackgroundColor=none;fontSize=5;fillColor=#f9f7ed;strokeColor=#36393d;verticalAlign=top;fontStyle=1" vertex="1" parent="v2BWGfwRVVUPkCRsSJ6M-66">
          <mxGeometry x="13" y="42.5" width="407" height="160" as="geometry" />
        </mxCell>
        <mxCell id="QzD59LcxyiCYfnGdim3O-58" value="Third Party" style="rounded=1;whiteSpace=wrap;html=1;labelBackgroundColor=none;fontSize=5;fillColor=#f9f7ed;strokeColor=#36393d;verticalAlign=top;fontStyle=1" vertex="1" parent="v2BWGfwRVVUPkCRsSJ6M-66">
          <mxGeometry x="1100" y="42.5" width="860" height="160" as="geometry" />
        </mxCell>
        <mxCell id="Fqvfi7rmwW5u9NjxgF6c-1" value="NEW CFDC" style="rounded=1;whiteSpace=wrap;html=1;fillColor=#fff2cc;strokeColor=#d6b656;fontFamily=Verdana;align=center;verticalAlign=top;fontStyle=1;fontColor=#EA6B66;labelBackgroundColor=none;labelBorderColor=none;" parent="v2BWGfwRVVUPkCRsSJ6M-66" vertex="1">
          <mxGeometry x="20" y="275" width="1610" height="800" as="geometry" />
        </mxCell>
        <mxCell id="UcZD4mles2c6Bbn5pO1t-1" value="IDC" style="rounded=1;whiteSpace=wrap;html=1;fillColor=#fff2cc;strokeColor=#d6b656;fontFamily=Verdana;align=center;verticalAlign=top;fontStyle=1;fontColor=#EA6B66;labelBackgroundColor=none;labelBorderColor=none;" parent="v2BWGfwRVVUPkCRsSJ6M-66" vertex="1">
          <mxGeometry x="1720" y="315" width="270" height="380" as="geometry" />
        </mxCell>
        <mxCell id="5UJs6BnoAASIVDI1Z4WO-3" value="&lt;span style=&quot;font-size: 11px;&quot;&gt;&lt;b&gt;CAC&lt;/b&gt;&lt;/span&gt;" style="rounded=0;whiteSpace=wrap;html=1;labelBackgroundColor=none;labelBorderColor=none;fontFamily=Verdana;fontSize=6;verticalAlign=top;fillColor=#d5e8d4;strokeColor=#82b366;" parent="v2BWGfwRVVUPkCRsSJ6M-66" vertex="1">
          <mxGeometry x="960" y="535" width="160" height="60" as="geometry" />
        </mxCell>
        <mxCell id="5UJs6BnoAASIVDI1Z4WO-11" value="&lt;span style=&quot;font-size: 11px;&quot;&gt;&lt;b&gt;S4&lt;/b&gt;&lt;/span&gt;" style="rounded=0;whiteSpace=wrap;html=1;labelBackgroundColor=none;labelBorderColor=none;fontFamily=Verdana;fontSize=6;verticalAlign=top;fillColor=#d5e8d4;strokeColor=#82b366;" parent="v2BWGfwRVVUPkCRsSJ6M-66" vertex="1">
          <mxGeometry x="597" y="805" width="160" height="60" as="geometry" />
        </mxCell>
        <mxCell id="5UJs6BnoAASIVDI1Z4WO-13" value="&lt;span style=&quot;font-size: 11px;&quot;&gt;&lt;b&gt;Auth&lt;/b&gt;&lt;/span&gt;" style="rounded=0;whiteSpace=wrap;html=1;labelBackgroundColor=none;labelBorderColor=none;fontFamily=Verdana;fontSize=6;verticalAlign=top;fillColor=#d5e8d4;strokeColor=#82b366;" parent="v2BWGfwRVVUPkCRsSJ6M-66" vertex="1">
          <mxGeometry x="1210" y="315" width="160" height="60" as="geometry" />
        </mxCell>
        <mxCell id="qFwmCd0osZzuR0E7HiHh-3" value="&lt;span style=&quot;font-size: 11px;&quot;&gt;&lt;b&gt;Vanilla BFF&lt;/b&gt;&lt;/span&gt;" style="rounded=0;whiteSpace=wrap;html=1;labelBackgroundColor=none;labelBorderColor=none;fontFamily=Verdana;fontSize=6;verticalAlign=top;fillColor=#d5e8d4;strokeColor=#82b366;" parent="v2BWGfwRVVUPkCRsSJ6M-66" vertex="1">
          <mxGeometry x="490" y="395" width="160" height="60" as="geometry" />
        </mxCell>
        <mxCell id="qFwmCd0osZzuR0E7HiHh-4" value="&lt;span style=&quot;font-size: 11px;&quot;&gt;&lt;b&gt;WSG BFF&lt;/b&gt;&lt;/span&gt;" style="rounded=0;whiteSpace=wrap;html=1;labelBackgroundColor=none;labelBorderColor=none;fontFamily=Verdana;fontSize=6;verticalAlign=top;fillColor=#d5e8d4;strokeColor=#82b366;" parent="v2BWGfwRVVUPkCRsSJ6M-66" vertex="1">
          <mxGeometry x="680" y="395" width="160" height="60" as="geometry" />
        </mxCell>
        <mxCell id="qFwmCd0osZzuR0E7HiHh-5" value="&lt;span style=&quot;font-size: 11px;&quot;&gt;&lt;b&gt;Third Party Gateway&lt;/b&gt;&lt;/span&gt;" style="rounded=0;whiteSpace=wrap;html=1;labelBackgroundColor=none;labelBorderColor=none;fontFamily=Verdana;fontSize=6;verticalAlign=top;fillColor=#d5e8d4;strokeColor=#82b366;" parent="v2BWGfwRVVUPkCRsSJ6M-66" vertex="1">
          <mxGeometry x="1450" y="290" width="90" height="440" as="geometry" />
        </mxCell>
        <mxCell id="9zri-ES9pFd8vwDEwkX5-1" value="POS" style="strokeColor=#dddddd;shadow=1;strokeWidth=1;rounded=1;absoluteArcSize=1;arcSize=2;labelPosition=center;verticalLabelPosition=middle;align=center;verticalAlign=bottom;spacingLeft=0;fontColor=#999999;fontSize=12;whiteSpace=wrap;spacingBottom=2;labelBackgroundColor=none;labelBorderColor=none;fontFamily=Verdana;" parent="v2BWGfwRVVUPkCRsSJ6M-66" vertex="1">
          <mxGeometry x="1850" y="365" width="70" height="90" as="geometry" />
        </mxCell>
        <mxCell id="9zri-ES9pFd8vwDEwkX5-2" value="" style="dashed=0;connectable=0;html=1;fillColor=#757575;strokeColor=none;shape=mxgraph.gcp2.desktop_and_mobile;part=1;labelBackgroundColor=none;labelBorderColor=none;fontFamily=Verdana;fontColor=#EA6B66;" parent="9zri-ES9pFd8vwDEwkX5-1" vertex="1">
          <mxGeometry x="0.5" width="50" height="33" relative="1" as="geometry">
            <mxPoint x="-25" y="18.5" as="offset" />
          </mxGeometry>
        </mxCell>
        <mxCell id="9zri-ES9pFd8vwDEwkX5-5" value="&lt;span style=&quot;font-size: 11px;&quot;&gt;&lt;b&gt;SC&lt;/b&gt;&lt;/span&gt;" style="rounded=0;whiteSpace=wrap;html=1;labelBackgroundColor=none;labelBorderColor=none;fontFamily=Verdana;fontSize=6;verticalAlign=top;fillColor=#d5e8d4;strokeColor=#82b366;" parent="v2BWGfwRVVUPkCRsSJ6M-66" vertex="1">
          <mxGeometry x="230" y="805" width="160" height="60" as="geometry" />
        </mxCell>
        <mxCell id="9zri-ES9pFd8vwDEwkX5-8" value="&lt;span style=&quot;font-size: 11px;&quot;&gt;&lt;b&gt;eBuy&lt;/b&gt;&lt;/span&gt;" style="rounded=0;whiteSpace=wrap;html=1;labelBackgroundColor=none;labelBorderColor=none;fontFamily=Verdana;fontSize=6;verticalAlign=top;fillColor=#d5e8d4;strokeColor=#82b366;" parent="v2BWGfwRVVUPkCRsSJ6M-66" vertex="1">
          <mxGeometry x="1720" y="1000" width="160" height="60" as="geometry" />
        </mxCell>
        <mxCell id="9zri-ES9pFd8vwDEwkX5-9" value="&lt;span style=&quot;font-size: 11px;&quot;&gt;&lt;b&gt;CCC API&lt;/b&gt;&lt;/span&gt;" style="rounded=0;whiteSpace=wrap;html=1;labelBackgroundColor=none;labelBorderColor=none;fontFamily=Verdana;fontSize=6;verticalAlign=top;fillColor=#d5e8d4;strokeColor=#82b366;" parent="v2BWGfwRVVUPkCRsSJ6M-66" vertex="1">
          <mxGeometry x="1130" y="395" width="160" height="60" as="geometry" />
        </mxCell>
        <mxCell id="9zri-ES9pFd8vwDEwkX5-15" value="&lt;span style=&quot;font-size: 11px;&quot;&gt;&lt;b&gt;OATS&lt;/b&gt;&lt;/span&gt;" style="rounded=0;whiteSpace=wrap;html=1;labelBackgroundColor=none;labelBorderColor=none;fontFamily=Verdana;fontSize=6;verticalAlign=top;fillColor=#d5e8d4;strokeColor=#82b366;" parent="v2BWGfwRVVUPkCRsSJ6M-66" vertex="1">
          <mxGeometry x="1415" y="800" width="160" height="60" as="geometry" />
        </mxCell>
        <mxCell id="9zri-ES9pFd8vwDEwkX5-3" value="&lt;span style=&quot;font-size: 11px;&quot;&gt;&lt;b&gt;OC&lt;/b&gt;&lt;/span&gt;" style="rounded=0;whiteSpace=wrap;html=1;labelBackgroundColor=none;labelBorderColor=none;fontFamily=Verdana;fontSize=6;verticalAlign=top;fillColor=#d5e8d4;strokeColor=#82b366;" parent="v2BWGfwRVVUPkCRsSJ6M-66" vertex="1">
          <mxGeometry x="1160" y="675" width="160" height="60" as="geometry" />
        </mxCell>
        <mxCell id="5UJs6BnoAASIVDI1Z4WO-10" value="&lt;span style=&quot;font-size: 11px;&quot;&gt;&lt;b&gt;PE&lt;/b&gt;&lt;/span&gt;" style="rounded=0;whiteSpace=wrap;html=1;labelBackgroundColor=none;labelBorderColor=none;fontFamily=Verdana;fontSize=6;verticalAlign=top;fillColor=#d5e8d4;strokeColor=#82b366;" parent="v2BWGfwRVVUPkCRsSJ6M-66" vertex="1">
          <mxGeometry x="960" y="675" width="160" height="60" as="geometry" />
        </mxCell>
        <mxCell id="5UJs6BnoAASIVDI1Z4WO-9" value="&lt;span style=&quot;font-size: 11px;&quot;&gt;&lt;b&gt;LE&lt;/b&gt;&lt;/span&gt;" style="rounded=0;whiteSpace=wrap;html=1;labelBackgroundColor=none;labelBorderColor=none;fontFamily=Verdana;fontSize=6;verticalAlign=top;fillColor=#d5e8d4;strokeColor=#82b366;" parent="v2BWGfwRVVUPkCRsSJ6M-66" vertex="1">
          <mxGeometry x="410" y="805" width="160" height="60" as="geometry" />
        </mxCell>
        <mxCell id="9zri-ES9pFd8vwDEwkX5-6" value="&lt;span style=&quot;font-size: 11px;&quot;&gt;&lt;b&gt;CC&lt;/b&gt;&lt;/span&gt;" style="rounded=0;whiteSpace=wrap;html=1;labelBackgroundColor=none;labelBorderColor=none;fontFamily=Verdana;fontSize=6;verticalAlign=top;fillColor=#d5e8d4;strokeColor=#82b366;" parent="v2BWGfwRVVUPkCRsSJ6M-66" vertex="1">
          <mxGeometry x="920" y="805" width="160" height="60" as="geometry" />
        </mxCell>
        <mxCell id="qFwmCd0osZzuR0E7HiHh-7" value="&lt;span style=&quot;font-size: 11px;&quot;&gt;&lt;b&gt;FC&lt;/b&gt;&lt;/span&gt;" style="rounded=0;whiteSpace=wrap;html=1;labelBackgroundColor=none;labelBorderColor=none;fontFamily=Verdana;fontSize=6;verticalAlign=top;fillColor=#d5e8d4;strokeColor=#82b366;" parent="v2BWGfwRVVUPkCRsSJ6M-66" vertex="1">
          <mxGeometry x="250" y="535" width="160" height="60" as="geometry" />
        </mxCell>
        <mxCell id="5x20nt1euc817iq7_VCJ-5" value="" style="endArrow=classic;html=1;rounded=0;sketch=0;fontFamily=Verdana;fontSize=10;fontColor=#EA6B66;exitX=0.5;exitY=1;exitDx=0;exitDy=0;entryX=0.5;entryY=0;entryDx=0;entryDy=0;" parent="v2BWGfwRVVUPkCRsSJ6M-66" source="qFwmCd0osZzuR0E7HiHh-7" target="5UJs6BnoAASIVDI1Z4WO-11" edge="1">
          <mxGeometry width="50" height="50" relative="1" as="geometry">
            <mxPoint x="770" y="465" as="sourcePoint" />
            <mxPoint x="329.9999999999998" y="545" as="targetPoint" />
          </mxGeometry>
        </mxCell>
        <mxCell id="5x20nt1euc817iq7_VCJ-6" value="" style="endArrow=classic;html=1;rounded=0;sketch=0;fontFamily=Verdana;fontSize=10;fontColor=#EA6B66;exitX=0.75;exitY=0;exitDx=0;exitDy=0;entryX=0.5;entryY=1;entryDx=0;entryDy=0;" parent="v2BWGfwRVVUPkCRsSJ6M-66" source="5UJs6BnoAASIVDI1Z4WO-11" target="5UJs6BnoAASIVDI1Z4WO-3" edge="1">
          <mxGeometry width="50" height="50" relative="1" as="geometry">
            <mxPoint x="599.9999999999998" y="605" as="sourcePoint" />
            <mxPoint x="687" y="815.0000000000002" as="targetPoint" />
          </mxGeometry>
        </mxCell>
        <mxCell id="5UJs6BnoAASIVDI1Z4WO-1" value="&lt;span style=&quot;font-size: 11px;&quot;&gt;&lt;b&gt;Kong&lt;/b&gt;&lt;/span&gt;" style="rounded=0;whiteSpace=wrap;html=1;labelBackgroundColor=none;labelBorderColor=none;fontFamily=Verdana;fontSize=6;verticalAlign=top;fillColor=#d5e8d4;strokeColor=#82b366;" parent="v2BWGfwRVVUPkCRsSJ6M-66" vertex="1">
          <mxGeometry x="120" y="313" width="1040" height="40" as="geometry" />
        </mxCell>
        <mxCell id="5UJs6BnoAASIVDI1Z4WO-6" value="&lt;span style=&quot;font-size: 11px;&quot;&gt;&lt;b&gt;CRM Adapter&lt;/b&gt;&lt;/span&gt;" style="rounded=0;whiteSpace=wrap;html=1;labelBackgroundColor=none;labelBorderColor=none;fontFamily=Verdana;fontSize=6;verticalAlign=top;fillColor=#d5e8d4;strokeColor=#82b366;" parent="v2BWGfwRVVUPkCRsSJ6M-66" vertex="1">
          <mxGeometry x="510" y="535" width="160" height="60" as="geometry" />
        </mxCell>
        <mxCell id="qFwmCd0osZzuR0E7HiHh-2" value="&lt;span style=&quot;font-size: 11px;&quot;&gt;&lt;b&gt;APP BFF&lt;/b&gt;&lt;/span&gt;" style="rounded=0;whiteSpace=wrap;html=1;labelBackgroundColor=none;labelBorderColor=none;fontFamily=Verdana;fontSize=6;verticalAlign=top;fillColor=#d5e8d4;strokeColor=#82b366;" parent="v2BWGfwRVVUPkCRsSJ6M-66" vertex="1">
          <mxGeometry x="300" y="395" width="160" height="60" as="geometry" />
        </mxCell>
        <mxCell id="qFwmCd0osZzuR0E7HiHh-6" value="&lt;span style=&quot;font-size: 11px;&quot;&gt;&lt;b&gt;UPP&lt;/b&gt;&lt;/span&gt;" style="rounded=0;whiteSpace=wrap;html=1;labelBackgroundColor=none;labelBorderColor=none;fontFamily=Verdana;fontSize=6;verticalAlign=top;fillColor=#d5e8d4;strokeColor=#82b366;" parent="v2BWGfwRVVUPkCRsSJ6M-66" vertex="1">
          <mxGeometry x="730" y="535" width="160" height="60" as="geometry" />
        </mxCell>
        <mxCell id="9zri-ES9pFd8vwDEwkX5-4" value="&lt;span style=&quot;font-size: 11px;&quot;&gt;&lt;b&gt;PC&lt;/b&gt;&lt;/span&gt;" style="rounded=0;whiteSpace=wrap;html=1;labelBackgroundColor=none;labelBorderColor=none;fontFamily=Verdana;fontSize=6;verticalAlign=top;fillColor=#d5e8d4;strokeColor=#82b366;" parent="v2BWGfwRVVUPkCRsSJ6M-66" vertex="1">
          <mxGeometry x="50" y="805" width="160" height="60" as="geometry" />
        </mxCell>
        <mxCell id="9zri-ES9pFd8vwDEwkX5-7" value="&lt;span style=&quot;font-size: 11px;&quot;&gt;&lt;b&gt;PnC&lt;/b&gt;&lt;/span&gt;" style="rounded=0;whiteSpace=wrap;html=1;labelBackgroundColor=none;labelBorderColor=none;fontFamily=Verdana;fontSize=6;verticalAlign=top;fillColor=#d5e8d4;strokeColor=#82b366;" parent="v2BWGfwRVVUPkCRsSJ6M-66" vertex="1">
          <mxGeometry x="1775" y="520" width="160" height="60" as="geometry" />
        </mxCell>
        <mxCell id="9zri-ES9pFd8vwDEwkX5-11" value="" style="endArrow=classic;html=1;rounded=0;sketch=0;fontFamily=Verdana;fontSize=10;fontColor=#EA6B66;entryX=0.5;entryY=0;entryDx=0;entryDy=0;exitX=0.5;exitY=1;exitDx=0;exitDy=0;" parent="v2BWGfwRVVUPkCRsSJ6M-66" source="5UJs6BnoAASIVDI1Z4WO-1" target="QzD59LcxyiCYfnGdim3O-23" edge="1">
          <mxGeometry width="50" height="50" relative="1" as="geometry">
            <mxPoint x="610" y="705" as="sourcePoint" />
            <mxPoint x="190" y="395" as="targetPoint" />
          </mxGeometry>
        </mxCell>
        <mxCell id="9zri-ES9pFd8vwDEwkX5-12" value="" style="endArrow=classic;html=1;rounded=0;sketch=0;fontFamily=Verdana;fontSize=10;fontColor=#EA6B66;entryX=0.5;entryY=0;entryDx=0;entryDy=0;exitX=0.5;exitY=1;exitDx=0;exitDy=0;" parent="v2BWGfwRVVUPkCRsSJ6M-66" target="qFwmCd0osZzuR0E7HiHh-2" edge="1" source="5UJs6BnoAASIVDI1Z4WO-1">
          <mxGeometry width="50" height="50" relative="1" as="geometry">
            <mxPoint x="640" y="365" as="sourcePoint" />
            <mxPoint x="200" y="405" as="targetPoint" />
          </mxGeometry>
        </mxCell>
        <mxCell id="9zri-ES9pFd8vwDEwkX5-13" value="" style="endArrow=classic;html=1;rounded=0;sketch=0;fontFamily=Verdana;fontSize=10;fontColor=#EA6B66;entryX=0.5;entryY=0;entryDx=0;entryDy=0;exitX=0.5;exitY=1;exitDx=0;exitDy=0;" parent="v2BWGfwRVVUPkCRsSJ6M-66" target="qFwmCd0osZzuR0E7HiHh-3" edge="1" source="5UJs6BnoAASIVDI1Z4WO-1">
          <mxGeometry width="50" height="50" relative="1" as="geometry">
            <mxPoint x="640" y="365" as="sourcePoint" />
            <mxPoint x="390" y="405" as="targetPoint" />
          </mxGeometry>
        </mxCell>
        <mxCell id="9zri-ES9pFd8vwDEwkX5-14" value="" style="endArrow=classic;html=1;rounded=0;sketch=0;fontFamily=Verdana;fontSize=10;fontColor=#EA6B66;entryX=0.5;entryY=0;entryDx=0;entryDy=0;exitX=0.5;exitY=1;exitDx=0;exitDy=0;" parent="v2BWGfwRVVUPkCRsSJ6M-66" target="qFwmCd0osZzuR0E7HiHh-4" edge="1" source="5UJs6BnoAASIVDI1Z4WO-1">
          <mxGeometry width="50" height="50" relative="1" as="geometry">
            <mxPoint x="640" y="365" as="sourcePoint" />
            <mxPoint x="400" y="415" as="targetPoint" />
          </mxGeometry>
        </mxCell>
        <mxCell id="5x20nt1euc817iq7_VCJ-1" value="" style="endArrow=classic;html=1;rounded=0;sketch=0;fontFamily=Verdana;fontSize=10;fontColor=#EA6B66;entryX=0.5;entryY=0;entryDx=0;entryDy=0;exitX=0.5;exitY=1;exitDx=0;exitDy=0;" parent="v2BWGfwRVVUPkCRsSJ6M-66" source="QzD59LcxyiCYfnGdim3O-23" target="5UJs6BnoAASIVDI1Z4WO-6" edge="1">
          <mxGeometry width="50" height="50" relative="1" as="geometry">
            <mxPoint x="650" y="375" as="sourcePoint" />
            <mxPoint x="200" y="405" as="targetPoint" />
          </mxGeometry>
        </mxCell>
        <mxCell id="5x20nt1euc817iq7_VCJ-2" value="" style="endArrow=classic;html=1;rounded=0;sketch=0;fontFamily=Verdana;fontSize=10;fontColor=#EA6B66;exitX=0.5;exitY=1;exitDx=0;exitDy=0;entryX=0.5;entryY=0;entryDx=0;entryDy=0;" parent="v2BWGfwRVVUPkCRsSJ6M-66" source="qFwmCd0osZzuR0E7HiHh-2" edge="1" target="5UJs6BnoAASIVDI1Z4WO-6">
          <mxGeometry width="50" height="50" relative="1" as="geometry">
            <mxPoint x="200" y="465" as="sourcePoint" />
            <mxPoint x="320" y="535" as="targetPoint" />
          </mxGeometry>
        </mxCell>
        <mxCell id="5x20nt1euc817iq7_VCJ-3" value="" style="endArrow=classic;html=1;rounded=0;sketch=0;fontFamily=Verdana;fontSize=10;fontColor=#EA6B66;exitX=0.5;exitY=1;exitDx=0;exitDy=0;entryX=0.5;entryY=0;entryDx=0;entryDy=0;" parent="v2BWGfwRVVUPkCRsSJ6M-66" source="qFwmCd0osZzuR0E7HiHh-3" target="5UJs6BnoAASIVDI1Z4WO-6" edge="1">
          <mxGeometry width="50" height="50" relative="1" as="geometry">
            <mxPoint x="390" y="465" as="sourcePoint" />
            <mxPoint x="330" y="545" as="targetPoint" />
          </mxGeometry>
        </mxCell>
        <mxCell id="5x20nt1euc817iq7_VCJ-4" value="" style="endArrow=classic;html=1;rounded=0;sketch=0;fontFamily=Verdana;fontSize=10;fontColor=#EA6B66;exitX=0.5;exitY=1;exitDx=0;exitDy=0;entryX=0.5;entryY=0;entryDx=0;entryDy=0;" parent="v2BWGfwRVVUPkCRsSJ6M-66" source="qFwmCd0osZzuR0E7HiHh-4" edge="1" target="5UJs6BnoAASIVDI1Z4WO-6">
          <mxGeometry width="50" height="50" relative="1" as="geometry">
            <mxPoint x="580" y="465" as="sourcePoint" />
            <mxPoint x="320" y="535" as="targetPoint" />
          </mxGeometry>
        </mxCell>
        <mxCell id="5x20nt1euc817iq7_VCJ-7" value="" style="endArrow=classic;html=1;rounded=0;sketch=0;fontFamily=Verdana;fontSize=10;fontColor=#EA6B66;exitX=0.5;exitY=1;exitDx=0;exitDy=0;entryX=0.5;entryY=0;entryDx=0;entryDy=0;" parent="v2BWGfwRVVUPkCRsSJ6M-66" source="5UJs6BnoAASIVDI1Z4WO-6" target="5UJs6BnoAASIVDI1Z4WO-11" edge="1">
          <mxGeometry width="50" height="50" relative="1" as="geometry">
            <mxPoint x="599.9999999999998" y="605" as="sourcePoint" />
            <mxPoint x="680" y="805" as="targetPoint" />
          </mxGeometry>
        </mxCell>
        <mxCell id="QzD59LcxyiCYfnGdim3O-1" value="APP" style="strokeColor=#dddddd;shadow=1;strokeWidth=1;rounded=1;absoluteArcSize=1;arcSize=2;labelPosition=center;verticalLabelPosition=middle;align=center;verticalAlign=bottom;spacingLeft=0;fontColor=#999999;fontSize=12;whiteSpace=wrap;spacingBottom=2;labelBackgroundColor=none;labelBorderColor=none;fontFamily=Verdana;" vertex="1" parent="v2BWGfwRVVUPkCRsSJ6M-66">
          <mxGeometry x="430" y="80" width="70" height="85" as="geometry" />
        </mxCell>
        <mxCell id="QzD59LcxyiCYfnGdim3O-2" value="" style="dashed=0;connectable=0;html=1;fillColor=#757575;strokeColor=none;shape=mxgraph.gcp2.beacon;part=1;labelBackgroundColor=none;labelBorderColor=none;fontFamily=Verdana;fontColor=#EA6B66;" vertex="1" parent="QzD59LcxyiCYfnGdim3O-1">
          <mxGeometry x="0.5" width="36.5" height="50" relative="1" as="geometry">
            <mxPoint x="-18.25" y="10" as="offset" />
          </mxGeometry>
        </mxCell>
        <mxCell id="QzD59LcxyiCYfnGdim3O-4" value="Taobao" style="strokeColor=#dddddd;shadow=1;strokeWidth=1;rounded=1;absoluteArcSize=1;arcSize=2;labelPosition=center;verticalLabelPosition=middle;align=center;verticalAlign=bottom;spacingLeft=0;fontColor=#999999;fontSize=12;whiteSpace=wrap;spacingBottom=2;labelBackgroundColor=none;labelBorderColor=none;fontFamily=Verdana;" vertex="1" parent="v2BWGfwRVVUPkCRsSJ6M-66">
          <mxGeometry x="20" y="80" width="70" height="85" as="geometry" />
        </mxCell>
        <mxCell id="QzD59LcxyiCYfnGdim3O-5" value="" style="dashed=0;connectable=0;html=1;fillColor=#757575;strokeColor=none;shape=mxgraph.gcp2.beacon;part=1;labelBackgroundColor=none;labelBorderColor=none;fontFamily=Verdana;fontColor=#EA6B66;" vertex="1" parent="QzD59LcxyiCYfnGdim3O-4">
          <mxGeometry x="0.5" width="36.5" height="50" relative="1" as="geometry">
            <mxPoint x="-18.25" y="10" as="offset" />
          </mxGeometry>
        </mxCell>
        <mxCell id="QzD59LcxyiCYfnGdim3O-6" value="WeChat" style="strokeColor=#dddddd;shadow=1;strokeWidth=1;rounded=1;absoluteArcSize=1;arcSize=2;labelPosition=center;verticalLabelPosition=middle;align=center;verticalAlign=bottom;spacingLeft=0;fontColor=#999999;fontSize=12;whiteSpace=wrap;spacingBottom=2;labelBackgroundColor=none;labelBorderColor=none;fontFamily=Verdana;" vertex="1" parent="v2BWGfwRVVUPkCRsSJ6M-66">
          <mxGeometry x="535" y="80" width="70" height="85" as="geometry" />
        </mxCell>
        <mxCell id="QzD59LcxyiCYfnGdim3O-7" value="" style="dashed=0;connectable=0;html=1;fillColor=#757575;strokeColor=none;shape=mxgraph.gcp2.beacon;part=1;labelBackgroundColor=none;labelBorderColor=none;fontFamily=Verdana;fontColor=#EA6B66;" vertex="1" parent="QzD59LcxyiCYfnGdim3O-6">
          <mxGeometry x="0.5" width="36.5" height="50" relative="1" as="geometry">
            <mxPoint x="-18.25" y="10" as="offset" />
          </mxGeometry>
        </mxCell>
        <mxCell id="QzD59LcxyiCYfnGdim3O-8" value="Website" style="strokeColor=#dddddd;shadow=1;strokeWidth=1;rounded=1;absoluteArcSize=1;arcSize=2;labelPosition=center;verticalLabelPosition=middle;align=center;verticalAlign=bottom;spacingLeft=0;fontColor=#999999;fontSize=12;whiteSpace=wrap;spacingBottom=2;labelBackgroundColor=none;labelBorderColor=none;fontFamily=Verdana;" vertex="1" parent="v2BWGfwRVVUPkCRsSJ6M-66">
          <mxGeometry x="780" y="80" width="70" height="85" as="geometry" />
        </mxCell>
        <mxCell id="QzD59LcxyiCYfnGdim3O-9" value="" style="dashed=0;connectable=0;html=1;fillColor=#757575;strokeColor=none;shape=mxgraph.gcp2.beacon;part=1;labelBackgroundColor=none;labelBorderColor=none;fontFamily=Verdana;fontColor=#EA6B66;" vertex="1" parent="QzD59LcxyiCYfnGdim3O-8">
          <mxGeometry x="0.5" width="36.5" height="50" relative="1" as="geometry">
            <mxPoint x="-18.25" y="10" as="offset" />
          </mxGeometry>
        </mxCell>
        <mxCell id="QzD59LcxyiCYfnGdim3O-10" value="WSG" style="strokeColor=#dddddd;shadow=1;strokeWidth=1;rounded=1;absoluteArcSize=1;arcSize=2;labelPosition=center;verticalLabelPosition=middle;align=center;verticalAlign=bottom;spacingLeft=0;fontColor=#999999;fontSize=12;whiteSpace=wrap;spacingBottom=2;labelBackgroundColor=none;labelBorderColor=none;fontFamily=Verdana;" vertex="1" parent="v2BWGfwRVVUPkCRsSJ6M-66">
          <mxGeometry x="642" y="80" width="70" height="85" as="geometry" />
        </mxCell>
        <mxCell id="QzD59LcxyiCYfnGdim3O-11" value="" style="dashed=0;connectable=0;html=1;fillColor=#757575;strokeColor=none;shape=mxgraph.gcp2.beacon;part=1;labelBackgroundColor=none;labelBorderColor=none;fontFamily=Verdana;fontColor=#EA6B66;" vertex="1" parent="QzD59LcxyiCYfnGdim3O-10">
          <mxGeometry x="0.5" width="36.5" height="50" relative="1" as="geometry">
            <mxPoint x="-18.25" y="10" as="offset" />
          </mxGeometry>
        </mxCell>
        <mxCell id="QzD59LcxyiCYfnGdim3O-12" value="TMall" style="strokeColor=#dddddd;shadow=1;strokeWidth=1;rounded=1;absoluteArcSize=1;arcSize=2;labelPosition=center;verticalLabelPosition=middle;align=center;verticalAlign=bottom;spacingLeft=0;fontColor=#999999;fontSize=12;whiteSpace=wrap;spacingBottom=2;labelBackgroundColor=none;labelBorderColor=none;fontFamily=Verdana;" vertex="1" parent="v2BWGfwRVVUPkCRsSJ6M-66">
          <mxGeometry x="180" y="80" width="70" height="90" as="geometry" />
        </mxCell>
        <mxCell id="QzD59LcxyiCYfnGdim3O-13" value="" style="dashed=0;connectable=0;html=1;fillColor=#757575;strokeColor=none;shape=mxgraph.gcp2.beacon;part=1;labelBackgroundColor=none;labelBorderColor=none;fontFamily=Verdana;fontColor=#EA6B66;" vertex="1" parent="QzD59LcxyiCYfnGdim3O-12">
          <mxGeometry x="0.5" width="36.5" height="50" relative="1" as="geometry">
            <mxPoint x="-18.25" y="10" as="offset" />
          </mxGeometry>
        </mxCell>
        <mxCell id="QzD59LcxyiCYfnGdim3O-14" value="CMB" style="strokeColor=#dddddd;shadow=1;strokeWidth=1;rounded=1;absoluteArcSize=1;arcSize=2;labelPosition=center;verticalLabelPosition=middle;align=center;verticalAlign=bottom;spacingLeft=0;fontColor=#999999;fontSize=12;whiteSpace=wrap;spacingBottom=2;labelBackgroundColor=none;labelBorderColor=none;fontFamily=Verdana;" vertex="1" parent="v2BWGfwRVVUPkCRsSJ6M-66">
          <mxGeometry x="1130" y="80" width="70" height="85" as="geometry" />
        </mxCell>
        <mxCell id="QzD59LcxyiCYfnGdim3O-15" value="" style="dashed=0;connectable=0;html=1;fillColor=#757575;strokeColor=none;shape=mxgraph.gcp2.beacon;part=1;labelBackgroundColor=none;labelBorderColor=none;fontFamily=Verdana;fontColor=#EA6B66;" vertex="1" parent="QzD59LcxyiCYfnGdim3O-14">
          <mxGeometry x="0.5" width="36.5" height="50" relative="1" as="geometry">
            <mxPoint x="-18.25" y="10" as="offset" />
          </mxGeometry>
        </mxCell>
        <mxCell id="QzD59LcxyiCYfnGdim3O-16" value="CCC" style="strokeColor=#dddddd;shadow=1;strokeWidth=1;rounded=1;absoluteArcSize=1;arcSize=2;labelPosition=center;verticalLabelPosition=middle;align=center;verticalAlign=bottom;spacingLeft=0;fontColor=#999999;fontSize=12;whiteSpace=wrap;spacingBottom=2;labelBackgroundColor=none;labelBorderColor=none;fontFamily=Verdana;" vertex="1" parent="v2BWGfwRVVUPkCRsSJ6M-66">
          <mxGeometry x="920" y="80" width="70" height="85" as="geometry" />
        </mxCell>
        <mxCell id="QzD59LcxyiCYfnGdim3O-17" value="" style="dashed=0;connectable=0;html=1;fillColor=#757575;strokeColor=none;shape=mxgraph.gcp2.beacon;part=1;labelBackgroundColor=none;labelBorderColor=none;fontFamily=Verdana;fontColor=#EA6B66;" vertex="1" parent="QzD59LcxyiCYfnGdim3O-16">
          <mxGeometry x="0.5" width="36.5" height="50" relative="1" as="geometry">
            <mxPoint x="-18.25" y="10" as="offset" />
          </mxGeometry>
        </mxCell>
        <mxCell id="QzD59LcxyiCYfnGdim3O-21" value="3pp.starbucks.com.cn/wsgbff" style="endArrow=classic;html=1;rounded=0;entryX=0.5;entryY=0;entryDx=0;entryDy=0;exitX=0.5;exitY=1;exitDx=0;exitDy=0;dashed=1;" edge="1" parent="v2BWGfwRVVUPkCRsSJ6M-66" source="QzD59LcxyiCYfnGdim3O-10" target="qFwmCd0osZzuR0E7HiHh-4">
          <mxGeometry x="-0.3591" y="-4" width="50" height="50" relative="1" as="geometry">
            <mxPoint x="200" y="175" as="sourcePoint" />
            <mxPoint x="200" y="405" as="targetPoint" />
            <mxPoint y="-1" as="offset" />
          </mxGeometry>
        </mxCell>
        <mxCell id="QzD59LcxyiCYfnGdim3O-22" value="&lt;span style=&quot;font-size: 11px;&quot;&gt;&lt;b&gt;Web BFF&lt;/b&gt;&lt;/span&gt;" style="rounded=0;whiteSpace=wrap;html=1;labelBackgroundColor=none;labelBorderColor=none;fontFamily=Verdana;fontSize=6;verticalAlign=top;fillColor=#d5e8d4;strokeColor=#82b366;" vertex="1" parent="v2BWGfwRVVUPkCRsSJ6M-66">
          <mxGeometry x="870" y="395" width="160" height="60" as="geometry" />
        </mxCell>
        <mxCell id="QzD59LcxyiCYfnGdim3O-23" value="&lt;b style=&quot;font-size: 11px;&quot;&gt;Caramel BFF&lt;/b&gt;" style="rounded=0;whiteSpace=wrap;html=1;labelBackgroundColor=none;labelBorderColor=none;fontFamily=Verdana;fontSize=5;verticalAlign=top;fillColor=#d5e8d4;strokeColor=#82b366;" vertex="1" parent="v2BWGfwRVVUPkCRsSJ6M-66">
          <mxGeometry x="40" y="395" width="160" height="60" as="geometry" />
        </mxCell>
        <mxCell id="QzD59LcxyiCYfnGdim3O-26" value="支付宝" style="strokeColor=#dddddd;shadow=1;strokeWidth=1;rounded=1;absoluteArcSize=1;arcSize=2;labelPosition=center;verticalLabelPosition=middle;align=center;verticalAlign=bottom;spacingLeft=0;fontColor=#999999;fontSize=12;whiteSpace=wrap;spacingBottom=2;labelBackgroundColor=none;labelBorderColor=none;fontFamily=Verdana;" vertex="1" parent="v2BWGfwRVVUPkCRsSJ6M-66">
          <mxGeometry x="100" y="82" width="70" height="85" as="geometry" />
        </mxCell>
        <mxCell id="QzD59LcxyiCYfnGdim3O-27" value="" style="dashed=0;connectable=0;html=1;fillColor=#757575;strokeColor=none;shape=mxgraph.gcp2.beacon;part=1;labelBackgroundColor=none;labelBorderColor=none;fontFamily=Verdana;fontColor=#EA6B66;" vertex="1" parent="QzD59LcxyiCYfnGdim3O-26">
          <mxGeometry x="0.5" width="36.5" height="50" relative="1" as="geometry">
            <mxPoint x="-18.25" y="10" as="offset" />
          </mxGeometry>
        </mxCell>
        <mxCell id="QzD59LcxyiCYfnGdim3O-28" value="" style="endArrow=classic;html=1;rounded=0;entryX=0.5;entryY=0;entryDx=0;entryDy=0;dashed=1;exitX=0.5;exitY=1;exitDx=0;exitDy=0;" edge="1" parent="v2BWGfwRVVUPkCRsSJ6M-66" source="QzD59LcxyiCYfnGdim3O-4" target="QzD59LcxyiCYfnGdim3O-23">
          <mxGeometry x="0.5217" width="50" height="50" relative="1" as="geometry">
            <mxPoint x="30" y="180" as="sourcePoint" />
            <mxPoint x="130" y="405" as="targetPoint" />
            <mxPoint as="offset" />
          </mxGeometry>
        </mxCell>
        <mxCell id="QzD59LcxyiCYfnGdim3O-29" value="" style="endArrow=classic;html=1;rounded=0;exitX=0.5;exitY=1;exitDx=0;exitDy=0;dashed=1;" edge="1" parent="v2BWGfwRVVUPkCRsSJ6M-66" source="QzD59LcxyiCYfnGdim3O-26">
          <mxGeometry x="0.5217" width="50" height="50" relative="1" as="geometry">
            <mxPoint x="185" y="175" as="sourcePoint" />
            <mxPoint x="120" y="400" as="targetPoint" />
            <mxPoint as="offset" />
          </mxGeometry>
        </mxCell>
        <mxCell id="QzD59LcxyiCYfnGdim3O-66" value="&lt;span style=&quot;font-size: 11px;&quot;&gt;3pp.starbucks.com.cn/alibff&lt;/span&gt;" style="edgeLabel;html=1;align=center;verticalAlign=middle;resizable=0;points=[];fontSize=5;" vertex="1" connectable="0" parent="QzD59LcxyiCYfnGdim3O-29">
          <mxGeometry x="-0.4865" y="-2" relative="1" as="geometry">
            <mxPoint as="offset" />
          </mxGeometry>
        </mxCell>
        <mxCell id="QzD59LcxyiCYfnGdim3O-30" value="bff.starbucks.com.cn/app-bff-api" style="endArrow=classic;html=1;rounded=0;exitX=0.5;exitY=1;exitDx=0;exitDy=0;dashed=1;" edge="1" parent="v2BWGfwRVVUPkCRsSJ6M-66" source="QzD59LcxyiCYfnGdim3O-1" target="qFwmCd0osZzuR0E7HiHh-2">
          <mxGeometry x="-0.4293" y="-4" width="50" height="50" relative="1" as="geometry">
            <mxPoint x="265" y="175" as="sourcePoint" />
            <mxPoint x="130" y="410" as="targetPoint" />
            <mxPoint as="offset" />
          </mxGeometry>
        </mxCell>
        <mxCell id="QzD59LcxyiCYfnGdim3O-31" value="3pp.starbucks.com.cn/wxmem" style="endArrow=classic;html=1;rounded=0;entryX=0.5;entryY=0;entryDx=0;entryDy=0;exitX=0.5;exitY=1;exitDx=0;exitDy=0;dashed=1;" edge="1" parent="v2BWGfwRVVUPkCRsSJ6M-66" source="QzD59LcxyiCYfnGdim3O-6" target="qFwmCd0osZzuR0E7HiHh-3">
          <mxGeometry x="-0.1739" width="50" height="50" relative="1" as="geometry">
            <mxPoint x="935" y="175" as="sourcePoint" />
            <mxPoint x="770" y="405" as="targetPoint" />
            <mxPoint as="offset" />
          </mxGeometry>
        </mxCell>
        <mxCell id="QzD59LcxyiCYfnGdim3O-32" value="bff.starbucks.com.cn/web-bff-api" style="endArrow=classic;html=1;rounded=0;entryX=0.5;entryY=0;entryDx=0;entryDy=0;exitX=0.5;exitY=1;exitDx=0;exitDy=0;dashed=1;" edge="1" parent="v2BWGfwRVVUPkCRsSJ6M-66" source="QzD59LcxyiCYfnGdim3O-8" target="QzD59LcxyiCYfnGdim3O-22">
          <mxGeometry x="-0.2415" y="4" width="50" height="50" relative="1" as="geometry">
            <mxPoint x="935" y="175" as="sourcePoint" />
            <mxPoint x="770" y="405" as="targetPoint" />
            <mxPoint as="offset" />
          </mxGeometry>
        </mxCell>
        <mxCell id="QzD59LcxyiCYfnGdim3O-33" value="" style="endArrow=classic;html=1;rounded=0;exitX=0.5;exitY=1;exitDx=0;exitDy=0;dashed=1;entryX=0.5;entryY=0;entryDx=0;entryDy=0;" edge="1" parent="v2BWGfwRVVUPkCRsSJ6M-66" source="QzD59LcxyiCYfnGdim3O-12" target="QzD59LcxyiCYfnGdim3O-23">
          <mxGeometry x="0.5217" width="50" height="50" relative="1" as="geometry">
            <mxPoint x="225" y="175" as="sourcePoint" />
            <mxPoint x="130" y="410" as="targetPoint" />
            <mxPoint as="offset" />
          </mxGeometry>
        </mxCell>
        <mxCell id="QzD59LcxyiCYfnGdim3O-34" value="Koubei" style="strokeColor=#666666;shadow=1;strokeWidth=1;rounded=1;absoluteArcSize=1;arcSize=2;labelPosition=center;verticalLabelPosition=middle;align=center;verticalAlign=bottom;spacingLeft=0;fontSize=12;whiteSpace=wrap;spacingBottom=2;labelBackgroundColor=none;labelBorderColor=none;fontFamily=Verdana;fillColor=#f5f5f5;gradientColor=#b3b3b3;" vertex="1" parent="v2BWGfwRVVUPkCRsSJ6M-66">
          <mxGeometry x="340" y="80" width="70" height="85" as="geometry" />
        </mxCell>
        <mxCell id="QzD59LcxyiCYfnGdim3O-35" value="" style="dashed=0;connectable=0;html=1;fillColor=#757575;strokeColor=none;shape=mxgraph.gcp2.beacon;part=1;labelBackgroundColor=none;labelBorderColor=none;fontFamily=Verdana;fontColor=#EA6B66;" vertex="1" parent="QzD59LcxyiCYfnGdim3O-34">
          <mxGeometry x="0.5" width="36.5" height="50" relative="1" as="geometry">
            <mxPoint x="-18.25" y="10" as="offset" />
          </mxGeometry>
        </mxCell>
        <mxCell id="QzD59LcxyiCYfnGdim3O-36" value="Eleme" style="strokeColor=#666666;shadow=1;strokeWidth=1;rounded=1;absoluteArcSize=1;arcSize=2;labelPosition=center;verticalLabelPosition=middle;align=center;verticalAlign=bottom;spacingLeft=0;fontSize=12;whiteSpace=wrap;spacingBottom=2;labelBackgroundColor=none;labelBorderColor=none;fontFamily=Verdana;fillColor=#f5f5f5;gradientColor=#b3b3b3;" vertex="1" parent="v2BWGfwRVVUPkCRsSJ6M-66">
          <mxGeometry x="1220" y="80" width="70" height="85" as="geometry" />
        </mxCell>
        <mxCell id="QzD59LcxyiCYfnGdim3O-37" value="" style="dashed=0;connectable=0;html=1;fillColor=#757575;strokeColor=none;shape=mxgraph.gcp2.beacon;part=1;labelBackgroundColor=none;labelBorderColor=none;fontFamily=Verdana;fontColor=#EA6B66;" vertex="1" parent="QzD59LcxyiCYfnGdim3O-36">
          <mxGeometry x="0.5" width="36.5" height="50" relative="1" as="geometry">
            <mxPoint x="-18.25" y="10" as="offset" />
          </mxGeometry>
        </mxCell>
        <mxCell id="QzD59LcxyiCYfnGdim3O-38" value="大众点评" style="strokeColor=#dddddd;shadow=1;strokeWidth=1;rounded=1;absoluteArcSize=1;arcSize=2;labelPosition=center;verticalLabelPosition=middle;align=center;verticalAlign=bottom;spacingLeft=0;fontColor=#999999;fontSize=12;whiteSpace=wrap;spacingBottom=2;labelBackgroundColor=none;labelBorderColor=none;fontFamily=Verdana;" vertex="1" parent="v2BWGfwRVVUPkCRsSJ6M-66">
          <mxGeometry x="1300" y="80" width="70" height="85" as="geometry" />
        </mxCell>
        <mxCell id="QzD59LcxyiCYfnGdim3O-39" value="" style="dashed=0;connectable=0;html=1;fillColor=#757575;strokeColor=none;shape=mxgraph.gcp2.beacon;part=1;labelBackgroundColor=none;labelBorderColor=none;fontFamily=Verdana;fontColor=#EA6B66;" vertex="1" parent="QzD59LcxyiCYfnGdim3O-38">
          <mxGeometry x="0.5" width="36.5" height="50" relative="1" as="geometry">
            <mxPoint x="-18.25" y="10" as="offset" />
          </mxGeometry>
        </mxCell>
        <mxCell id="QzD59LcxyiCYfnGdim3O-40" value="美团" style="strokeColor=#dddddd;shadow=1;strokeWidth=1;rounded=1;absoluteArcSize=1;arcSize=2;labelPosition=center;verticalLabelPosition=middle;align=center;verticalAlign=bottom;spacingLeft=0;fontColor=#999999;fontSize=12;whiteSpace=wrap;spacingBottom=2;labelBackgroundColor=none;labelBorderColor=none;fontFamily=Verdana;" vertex="1" parent="v2BWGfwRVVUPkCRsSJ6M-66">
          <mxGeometry x="1380" y="80" width="70" height="85" as="geometry" />
        </mxCell>
        <mxCell id="QzD59LcxyiCYfnGdim3O-41" value="" style="dashed=0;connectable=0;html=1;fillColor=#757575;strokeColor=none;shape=mxgraph.gcp2.beacon;part=1;labelBackgroundColor=none;labelBorderColor=none;fontFamily=Verdana;fontColor=#EA6B66;" vertex="1" parent="QzD59LcxyiCYfnGdim3O-40">
          <mxGeometry x="0.5" width="36.5" height="50" relative="1" as="geometry">
            <mxPoint x="-18.25" y="10" as="offset" />
          </mxGeometry>
        </mxCell>
        <mxCell id="QzD59LcxyiCYfnGdim3O-42" value="京东" style="strokeColor=#666666;shadow=1;strokeWidth=1;rounded=1;absoluteArcSize=1;arcSize=2;labelPosition=center;verticalLabelPosition=middle;align=center;verticalAlign=bottom;spacingLeft=0;fontSize=12;whiteSpace=wrap;spacingBottom=2;labelBackgroundColor=none;labelBorderColor=none;fontFamily=Verdana;fillColor=#f5f5f5;gradientColor=#b3b3b3;" vertex="1" parent="v2BWGfwRVVUPkCRsSJ6M-66">
          <mxGeometry x="1460" y="80" width="70" height="85" as="geometry" />
        </mxCell>
        <mxCell id="QzD59LcxyiCYfnGdim3O-43" value="" style="dashed=0;connectable=0;html=1;fillColor=#757575;strokeColor=none;shape=mxgraph.gcp2.beacon;part=1;labelBackgroundColor=none;labelBorderColor=none;fontFamily=Verdana;fontColor=#EA6B66;" vertex="1" parent="QzD59LcxyiCYfnGdim3O-42">
          <mxGeometry x="0.5" width="36.5" height="50" relative="1" as="geometry">
            <mxPoint x="-18.25" y="10" as="offset" />
          </mxGeometry>
        </mxCell>
        <mxCell id="QzD59LcxyiCYfnGdim3O-44" value="工行" style="strokeColor=#666666;shadow=1;strokeWidth=1;rounded=1;absoluteArcSize=1;arcSize=2;labelPosition=center;verticalLabelPosition=middle;align=center;verticalAlign=bottom;spacingLeft=0;fontSize=12;whiteSpace=wrap;spacingBottom=2;labelBackgroundColor=none;labelBorderColor=none;fontFamily=Verdana;fillColor=#f5f5f5;gradientColor=#b3b3b3;" vertex="1" parent="v2BWGfwRVVUPkCRsSJ6M-66">
          <mxGeometry x="1540" y="80" width="70" height="85" as="geometry" />
        </mxCell>
        <mxCell id="QzD59LcxyiCYfnGdim3O-45" value="" style="dashed=0;connectable=0;html=1;fillColor=#757575;strokeColor=none;shape=mxgraph.gcp2.beacon;part=1;labelBackgroundColor=none;labelBorderColor=none;fontFamily=Verdana;fontColor=#EA6B66;" vertex="1" parent="QzD59LcxyiCYfnGdim3O-44">
          <mxGeometry x="0.5" width="36.5" height="50" relative="1" as="geometry">
            <mxPoint x="-18.25" y="10" as="offset" />
          </mxGeometry>
        </mxCell>
        <mxCell id="QzD59LcxyiCYfnGdim3O-46" value="抖音" style="strokeColor=#666666;shadow=1;strokeWidth=1;rounded=1;absoluteArcSize=1;arcSize=2;labelPosition=center;verticalLabelPosition=middle;align=center;verticalAlign=bottom;spacingLeft=0;fontSize=12;whiteSpace=wrap;spacingBottom=2;labelBackgroundColor=none;labelBorderColor=none;fontFamily=Verdana;fillColor=#f5f5f5;gradientColor=#b3b3b3;" vertex="1" parent="v2BWGfwRVVUPkCRsSJ6M-66">
          <mxGeometry x="1620" y="80" width="70" height="85" as="geometry" />
        </mxCell>
        <mxCell id="QzD59LcxyiCYfnGdim3O-47" value="" style="dashed=0;connectable=0;html=1;fillColor=#757575;strokeColor=none;shape=mxgraph.gcp2.beacon;part=1;labelBackgroundColor=none;labelBorderColor=none;fontFamily=Verdana;fontColor=#EA6B66;" vertex="1" parent="QzD59LcxyiCYfnGdim3O-46">
          <mxGeometry x="0.5" width="36.5" height="50" relative="1" as="geometry">
            <mxPoint x="-18.25" y="10" as="offset" />
          </mxGeometry>
        </mxCell>
        <mxCell id="QzD59LcxyiCYfnGdim3O-48" value="Microsoft" style="strokeColor=#666666;shadow=1;strokeWidth=1;rounded=1;absoluteArcSize=1;arcSize=2;labelPosition=center;verticalLabelPosition=middle;align=center;verticalAlign=bottom;spacingLeft=0;fontSize=12;whiteSpace=wrap;spacingBottom=2;labelBackgroundColor=none;labelBorderColor=none;fontFamily=Verdana;fillColor=#f5f5f5;gradientColor=#b3b3b3;" vertex="1" parent="v2BWGfwRVVUPkCRsSJ6M-66">
          <mxGeometry x="1700" y="80" width="70" height="85" as="geometry" />
        </mxCell>
        <mxCell id="QzD59LcxyiCYfnGdim3O-49" value="" style="dashed=0;connectable=0;html=1;fillColor=#757575;strokeColor=none;shape=mxgraph.gcp2.beacon;part=1;labelBackgroundColor=none;labelBorderColor=none;fontFamily=Verdana;fontColor=#EA6B66;" vertex="1" parent="QzD59LcxyiCYfnGdim3O-48">
          <mxGeometry x="0.5" width="36.5" height="50" relative="1" as="geometry">
            <mxPoint x="-18.25" y="10" as="offset" />
          </mxGeometry>
        </mxCell>
        <mxCell id="QzD59LcxyiCYfnGdim3O-50" value="网易" style="strokeColor=#666666;shadow=1;strokeWidth=1;rounded=1;absoluteArcSize=1;arcSize=2;labelPosition=center;verticalLabelPosition=middle;align=center;verticalAlign=bottom;spacingLeft=0;fontSize=12;whiteSpace=wrap;spacingBottom=2;labelBackgroundColor=none;labelBorderColor=none;fontFamily=Verdana;fillColor=#f5f5f5;gradientColor=#b3b3b3;" vertex="1" parent="v2BWGfwRVVUPkCRsSJ6M-66">
          <mxGeometry x="1780" y="80" width="70" height="85" as="geometry" />
        </mxCell>
        <mxCell id="QzD59LcxyiCYfnGdim3O-51" value="" style="dashed=0;connectable=0;html=1;fillColor=#757575;strokeColor=none;shape=mxgraph.gcp2.beacon;part=1;labelBackgroundColor=none;labelBorderColor=none;fontFamily=Verdana;fontColor=#EA6B66;" vertex="1" parent="QzD59LcxyiCYfnGdim3O-50">
          <mxGeometry x="0.5" width="36.5" height="50" relative="1" as="geometry">
            <mxPoint x="-18.25" y="10" as="offset" />
          </mxGeometry>
        </mxCell>
        <mxCell id="QzD59LcxyiCYfnGdim3O-52" value="顺丰" style="strokeColor=#666666;shadow=1;strokeWidth=1;rounded=1;absoluteArcSize=1;arcSize=2;labelPosition=center;verticalLabelPosition=middle;align=center;verticalAlign=bottom;spacingLeft=0;fontSize=12;whiteSpace=wrap;spacingBottom=2;labelBackgroundColor=none;labelBorderColor=none;fontFamily=Verdana;fillColor=#f5f5f5;gradientColor=#b3b3b3;" vertex="1" parent="v2BWGfwRVVUPkCRsSJ6M-66">
          <mxGeometry x="1860" y="80" width="70" height="85" as="geometry" />
        </mxCell>
        <mxCell id="QzD59LcxyiCYfnGdim3O-53" value="" style="dashed=0;connectable=0;html=1;fillColor=#757575;strokeColor=none;shape=mxgraph.gcp2.beacon;part=1;labelBackgroundColor=none;labelBorderColor=none;fontFamily=Verdana;fontColor=#EA6B66;" vertex="1" parent="QzD59LcxyiCYfnGdim3O-52">
          <mxGeometry x="0.5" width="36.5" height="50" relative="1" as="geometry">
            <mxPoint x="-18.25" y="10" as="offset" />
          </mxGeometry>
        </mxCell>
        <mxCell id="QzD59LcxyiCYfnGdim3O-54" value="openapi.starbucks.com.cn/member" style="endArrow=classic;html=1;rounded=0;entryX=0.5;entryY=0;entryDx=0;entryDy=0;exitX=0.5;exitY=1;exitDx=0;exitDy=0;dashed=1;" edge="1" parent="v2BWGfwRVVUPkCRsSJ6M-66" source="QzD59LcxyiCYfnGdim3O-58" target="5UJs6BnoAASIVDI1Z4WO-6">
          <mxGeometry x="-0.6446" y="-2" width="50" height="50" relative="1" as="geometry">
            <mxPoint x="825" y="175" as="sourcePoint" />
            <mxPoint x="960" y="405" as="targetPoint" />
            <mxPoint as="offset" />
          </mxGeometry>
        </mxCell>
        <mxCell id="QzD59LcxyiCYfnGdim3O-55" value="" style="endArrow=classic;html=1;rounded=0;sketch=0;fontFamily=Verdana;fontSize=10;fontColor=#EA6B66;exitX=0.5;exitY=1;exitDx=0;exitDy=0;entryX=0.5;entryY=0;entryDx=0;entryDy=0;" edge="1" parent="v2BWGfwRVVUPkCRsSJ6M-66" source="QzD59LcxyiCYfnGdim3O-22" target="5UJs6BnoAASIVDI1Z4WO-6">
          <mxGeometry width="50" height="50" relative="1" as="geometry">
            <mxPoint x="770" y="465" as="sourcePoint" />
            <mxPoint x="330" y="545" as="targetPoint" />
          </mxGeometry>
        </mxCell>
        <mxCell id="QzD59LcxyiCYfnGdim3O-56" value="" style="endArrow=classic;html=1;rounded=0;sketch=0;fontFamily=Verdana;fontSize=10;fontColor=#EA6B66;entryX=0.5;entryY=0;entryDx=0;entryDy=0;exitX=0.5;exitY=1;exitDx=0;exitDy=0;" edge="1" parent="v2BWGfwRVVUPkCRsSJ6M-66" source="5UJs6BnoAASIVDI1Z4WO-1" target="QzD59LcxyiCYfnGdim3O-22">
          <mxGeometry width="50" height="50" relative="1" as="geometry">
            <mxPoint x="650" y="363" as="sourcePoint" />
            <mxPoint x="770" y="405" as="targetPoint" />
          </mxGeometry>
        </mxCell>
        <mxCell id="QzD59LcxyiCYfnGdim3O-57" value="" style="endArrow=classic;html=1;rounded=0;sketch=0;fontFamily=Verdana;fontSize=10;fontColor=#EA6B66;exitX=0.5;exitY=1;exitDx=0;exitDy=0;entryX=0.5;entryY=0;entryDx=0;entryDy=0;" edge="1" parent="v2BWGfwRVVUPkCRsSJ6M-66" source="qFwmCd0osZzuR0E7HiHh-6" target="5UJs6BnoAASIVDI1Z4WO-11">
          <mxGeometry width="50" height="50" relative="1" as="geometry">
            <mxPoint x="599.9999999999998" y="604.9999999999998" as="sourcePoint" />
            <mxPoint x="687" y="814.9999999999998" as="targetPoint" />
          </mxGeometry>
        </mxCell>
        <mxCell id="QzD59LcxyiCYfnGdim3O-60" value="" style="endArrow=classic;html=1;rounded=0;sketch=0;fontFamily=Verdana;fontSize=10;fontColor=#EA6B66;entryX=0.5;entryY=0;entryDx=0;entryDy=0;exitX=0;exitY=0.5;exitDx=0;exitDy=0;" edge="1" parent="v2BWGfwRVVUPkCRsSJ6M-66" source="qFwmCd0osZzuR0E7HiHh-5" target="5UJs6BnoAASIVDI1Z4WO-6">
          <mxGeometry width="50" height="50" relative="1" as="geometry">
            <mxPoint x="960" y="465" as="sourcePoint" />
            <mxPoint x="330.0000000000002" y="545" as="targetPoint" />
          </mxGeometry>
        </mxCell>
        <mxCell id="QzD59LcxyiCYfnGdim3O-62" value="" style="endArrow=classic;html=1;rounded=0;entryX=0.5;entryY=0;entryDx=0;entryDy=0;exitX=0.5;exitY=1;exitDx=0;exitDy=0;dashed=1;" edge="1" parent="v2BWGfwRVVUPkCRsSJ6M-66" source="QzD59LcxyiCYfnGdim3O-16" target="9zri-ES9pFd8vwDEwkX5-9">
          <mxGeometry x="-0.2415" y="4" width="50" height="50" relative="1" as="geometry">
            <mxPoint x="825" y="175" as="sourcePoint" />
            <mxPoint x="960" y="405" as="targetPoint" />
            <mxPoint as="offset" />
          </mxGeometry>
        </mxCell>
        <mxCell id="QzD59LcxyiCYfnGdim3O-63" value="" style="endArrow=classic;html=1;rounded=0;sketch=0;fontFamily=Verdana;fontSize=10;fontColor=#EA6B66;exitX=1;exitY=0.25;exitDx=0;exitDy=0;entryX=0.5;entryY=1;entryDx=0;entryDy=0;" edge="1" parent="v2BWGfwRVVUPkCRsSJ6M-66" source="5UJs6BnoAASIVDI1Z4WO-11" target="5UJs6BnoAASIVDI1Z4WO-10">
          <mxGeometry width="50" height="50" relative="1" as="geometry">
            <mxPoint x="727" y="814.9999999999998" as="sourcePoint" />
            <mxPoint x="1050" y="604.9999999999998" as="targetPoint" />
          </mxGeometry>
        </mxCell>
        <mxCell id="QzD59LcxyiCYfnGdim3O-64" value="" style="endArrow=classic;html=1;rounded=0;sketch=0;fontFamily=Verdana;fontSize=10;fontColor=#EA6B66;exitX=1;exitY=0.25;exitDx=0;exitDy=0;entryX=0.5;entryY=1;entryDx=0;entryDy=0;" edge="1" parent="v2BWGfwRVVUPkCRsSJ6M-66" source="5UJs6BnoAASIVDI1Z4WO-11" target="9zri-ES9pFd8vwDEwkX5-3">
          <mxGeometry width="50" height="50" relative="1" as="geometry">
            <mxPoint x="767" y="829.9999999999998" as="sourcePoint" />
            <mxPoint x="1050" y="744.9999999999998" as="targetPoint" />
          </mxGeometry>
        </mxCell>
        <mxCell id="QzD59LcxyiCYfnGdim3O-65" value="" style="endArrow=classic;startArrow=classic;html=1;rounded=0;fontSize=5;entryX=0;entryY=0.5;entryDx=0;entryDy=0;exitX=1;exitY=0.5;exitDx=0;exitDy=0;" edge="1" parent="v2BWGfwRVVUPkCRsSJ6M-66" source="5UJs6BnoAASIVDI1Z4WO-11" target="9zri-ES9pFd8vwDEwkX5-6">
          <mxGeometry width="50" height="50" relative="1" as="geometry">
            <mxPoint x="710" y="780" as="sourcePoint" />
            <mxPoint x="760" y="730" as="targetPoint" />
          </mxGeometry>
        </mxCell>
        <mxCell id="QzD59LcxyiCYfnGdim3O-24" value="高德" style="strokeColor=#666666;shadow=1;strokeWidth=1;rounded=1;absoluteArcSize=1;arcSize=2;labelPosition=center;verticalLabelPosition=middle;align=center;verticalAlign=bottom;spacingLeft=0;fontSize=12;whiteSpace=wrap;spacingBottom=2;labelBackgroundColor=none;labelBorderColor=none;fontFamily=Verdana;fillColor=#f5f5f5;gradientColor=#b3b3b3;" vertex="1" parent="v2BWGfwRVVUPkCRsSJ6M-66">
          <mxGeometry x="260" y="82" width="70" height="85" as="geometry" />
        </mxCell>
        <mxCell id="QzD59LcxyiCYfnGdim3O-25" value="" style="dashed=0;connectable=0;html=1;fillColor=#757575;strokeColor=none;shape=mxgraph.gcp2.beacon;part=1;labelBackgroundColor=none;labelBorderColor=none;fontFamily=Verdana;fontColor=#EA6B66;" vertex="1" parent="QzD59LcxyiCYfnGdim3O-24">
          <mxGeometry x="0.5" width="36.5" height="50" relative="1" as="geometry">
            <mxPoint x="-18.25" y="10" as="offset" />
          </mxGeometry>
        </mxCell>
      </root>
    </mxGraphModel>
  </diagram>
  <diagram id="FPUonOmb24sPlE5R8LKb" name="Application Chain Profile">
    <mxGraphModel dx="946" dy="582" grid="1" gridSize="10" guides="1" tooltips="1" connect="1" arrows="1" fold="1" page="1" pageScale="1" pageWidth="827" pageHeight="1169" math="0" shadow="0">
      <root>
        <mxCell id="0" />
        <mxCell id="1" parent="0" />
      </root>
    </mxGraphModel>
  </diagram>
</mxfile>
